<svg width="1440" height="81" viewBox="0 0 1440 81" fill="none" xmlns="http://www.w3.org/2000/svg">
<path fill-rule="evenodd" clip-rule="evenodd" d="M1440 33.8799C1439.83 33.8566 1439.65 33.8043 1439.44 33.7055C1438.83 33.4207 1438.65 33.4323 1438.49 33.7636C1438.19 34.3682 1437.11 34.4147 1436.84 33.8392C1436.71 33.5544 1436.61 33.502 1436.61 33.7113C1436.59 34.3042 1435.33 34.1357 1434.95 33.4904C1434.77 33.1707 1434.44 32.9091 1434.21 32.9091C1433.99 32.9091 1433.74 32.7696 1433.66 32.601C1433.56 32.415 1433.34 32.5312 1433.07 32.9149C1432.72 33.4207 1432.55 33.473 1432.15 33.2114C1431.89 33.037 1431.67 32.7289 1431.67 32.5371C1431.66 32.3162 1431.59 32.2929 1431.49 32.4731C1430.94 33.3974 1429.01 33.8624 1428.77 33.1242C1428.68 32.8335 1428.65 32.8335 1428.64 33.1242C1428.61 33.595 1427.98 33.595 1427.83 33.1242C1427.74 32.8335 1427.71 32.8335 1427.7 33.1242C1427.68 33.3276 1427.37 33.4846 1426.97 33.4846C1426.58 33.4846 1426.27 33.5834 1426.27 33.7055C1426.27 34.031 1425.08 34.6472 1424.46 34.6472C1424.16 34.6472 1423.92 34.7751 1423.92 34.9379C1423.92 35.0948 1423.46 35.2285 1422.89 35.2285C1422.27 35.2285 1421.75 35.3971 1421.58 35.6587C1421.33 36.0249 1421.2 36.0308 1420.66 35.6878C1419.85 35.1646 1417.68 35.6122 1416.94 36.4609C1416.45 37.0248 1416.41 37.0306 1416.26 36.5423C1416.16 36.211 1416.24 35.8912 1416.49 35.6645C1416.86 35.3274 1417.03 34.6472 1416.74 34.6472C1416.51 34.6472 1415.94 35.4669 1415.94 35.8098C1415.94 36.3737 1415.3 36.9725 1414.69 36.9725C1414.19 36.9725 1414.08 36.8039 1413.94 35.8098C1413.85 35.0948 1413.66 34.6472 1413.46 34.6472C1413.27 34.6472 1413.12 34.7751 1413.12 34.9379C1413.12 35.5831 1411.03 34.8681 1411 34.2112C1411 34.0485 1410.84 34.2461 1410.66 34.6472C1410.47 35.0483 1410.32 35.2111 1410.31 35.0076C1410.31 34.8042 1410.15 34.6472 1409.95 34.6472C1409.76 34.6472 1409.6 34.5484 1409.6 34.4263C1409.6 34.3043 1409.28 34.031 1408.88 33.8101C1408.35 33.5195 1408.09 33.4962 1407.89 33.7404C1407.61 34.0834 1406.55 34.1938 1406.55 33.8799C1406.55 33.7753 1406.74 33.5195 1406.96 33.3102C1407.34 32.9556 1407.32 32.9207 1406.75 32.9149C1406.41 32.9091 1406.07 32.7056 1405.99 32.4557C1405.88 32.0836 1405.76 32.0662 1405.32 32.3627C1405.03 32.5603 1404.48 32.7638 1404.11 32.8161C1403.73 32.8684 1403.29 33.0486 1403.13 33.2172C1402.9 33.4439 1402.68 33.3509 1402.29 32.8626C1401.82 32.2813 1401.56 32.2115 1400.16 32.2813C1399.15 32.3336 1398.57 32.2464 1398.57 32.0546C1398.57 31.886 1398.73 31.7465 1398.92 31.7465C1399.13 31.7465 1399.27 31.4907 1399.26 31.0954C1399.24 30.735 1399.18 30.6071 1399.12 30.8047C1398.98 31.2349 1398.1 31.2989 1398.1 30.8745C1398.1 30.7117 1397.94 30.5838 1397.75 30.5838C1397.55 30.5838 1397.4 30.7117 1397.4 30.8745C1397.4 31.0373 1396.97 31.1652 1396.46 31.1652C1395.78 31.1652 1395.44 31.0082 1395.23 30.5838C1395.03 30.1769 1394.68 30.0025 1394.1 30.0025C1393.24 30.0025 1392 29.4445 1392 29.0608C1392 28.9387 1391.75 28.8399 1391.45 28.8399C1391.16 28.8399 1390.68 28.5783 1390.41 28.2586C1390.13 27.9389 1389.84 27.6773 1389.76 27.6773C1389.68 27.6773 1389.46 27.4796 1389.26 27.2413C1389.07 26.9971 1388.8 26.8809 1388.68 26.9739C1388.3 27.2645 1387.77 26.4914 1387.77 25.6427C1387.77 25.2009 1387.62 24.7649 1387.42 24.6719C1387.23 24.5789 1387.13 24.3115 1387.21 24.0615C1387.29 23.8174 1387.24 23.6139 1387.09 23.6139C1386.95 23.6139 1386.83 23.7476 1386.83 23.9046C1386.83 24.0673 1386.67 24.1952 1386.48 24.1952C1386.29 24.1952 1386.13 24.079 1386.13 23.9394C1386.13 23.5325 1385.19 23.3407 1384.58 23.6255C1384.28 23.7709 1383.41 23.7883 1382.67 23.672C1381.34 23.4628 1380.22 23.7185 1378.92 24.5324C1378.2 24.9858 1377.68 24.6428 1377.66 23.6953C1377.65 23.2535 1377.59 23.05 1377.52 23.2477C1377.32 23.8522 1376.5 23.6604 1376.28 22.957C1376.16 22.5966 1376.06 22.4687 1376.05 22.6664C1376.03 23.0965 1375.09 23.1663 1375.09 22.7361C1375.09 22.5792 1374.71 22.4455 1374.24 22.4455C1373.61 22.4455 1373.25 22.2478 1372.87 21.6956C1372.43 21.0678 1372.32 21.0212 1372.2 21.4049C1372.12 21.6607 1371.79 21.8642 1371.46 21.8642C1371.13 21.8642 1370.87 21.9979 1370.87 22.1548C1370.87 22.3176 1370.6 22.4455 1370.28 22.4455C1369.96 22.4455 1369.69 22.3176 1369.69 22.1548C1369.69 21.9979 1369.55 21.8642 1369.36 21.8642C1369.18 21.8642 1368.97 21.7014 1368.91 21.5037C1368.82 21.2538 1368.65 21.341 1368.32 21.7944C1368.07 22.1548 1367.59 22.4455 1367.25 22.4455C1366.92 22.4455 1366.65 22.5792 1366.65 22.7361C1366.65 22.8989 1366.42 23.0268 1366.16 23.0268C1365.73 23.0268 1365.69 22.9047 1365.82 22.1548C1365.94 21.4747 1365.89 21.2828 1365.6 21.2828C1365.4 21.2828 1365.23 21.3817 1365.23 21.5037C1365.23 21.7304 1364.11 22.4455 1363.76 22.4455C1363.64 22.4455 1363.37 22.7245 1363.15 23.0617C1362.78 23.6139 1362.68 23.6372 1362.2 23.2826C1361.77 22.9686 1361.63 22.9628 1361.55 23.2477C1361.37 23.8406 1360.51 23.672 1360.37 23.0152C1360.25 22.4745 1360.2 22.5094 1359.75 23.3756C1359.31 24.2475 1359.26 24.2766 1359.18 23.7127C1359.07 22.7884 1358.31 22.6606 1357.94 23.4976C1357.78 23.8755 1357.45 24.1894 1357.21 24.1894C1356.96 24.1894 1356.78 24.3987 1356.78 24.701C1356.78 24.98 1356.58 25.3695 1356.33 25.5671C1355.94 25.8694 1355.85 25.8345 1355.72 25.3462C1355.58 24.7649 1354.91 24.5324 1354.91 25.0614C1354.91 25.2183 1354.66 25.352 1354.37 25.352C1354.07 25.352 1353.72 25.4799 1353.6 25.6369C1353.45 25.8229 1353.06 25.8171 1352.48 25.6194C1351.82 25.3927 1351.5 25.4044 1351.25 25.6601C1350.99 25.9275 1350.91 25.9275 1350.91 25.6601C1350.91 25.4276 1350.8 25.4625 1350.56 25.7473C1350.12 26.2938 1350.1 26.7007 1350.53 26.2531C1350.78 25.9973 1350.89 26.0147 1350.99 26.3344C1351.17 26.9158 1350.95 27.096 1350.08 27.096C1349.66 27.096 1349.27 27.2704 1349.2 27.4854C1349.12 27.7412 1348.83 27.8284 1348.33 27.7354C1347.89 27.654 1347.51 27.7412 1347.41 27.9389C1347.31 28.1307 1346.98 28.2993 1346.67 28.3284C1346.36 28.3516 1346.02 28.5086 1345.92 28.6771C1345.81 28.8748 1345.63 28.7992 1345.42 28.4562C1345.24 28.1656 1345.03 28.0493 1344.96 28.2005C1344.88 28.3516 1344.55 28.4039 1344.21 28.3284C1343.88 28.247 1343.35 28.3516 1343.04 28.5551C1342.61 28.8399 1342.4 28.8515 1342.15 28.5841C1341.89 28.3109 1341.79 28.3632 1341.69 28.8341C1341.62 29.1596 1341.37 29.4212 1341.12 29.4212C1340.88 29.4212 1340.55 29.5782 1340.4 29.77C1340.24 29.9618 1340.11 30.0142 1340.11 29.8805C1340.11 29.7468 1339.85 29.8572 1339.53 30.1188C1339.21 30.3804 1338.94 30.4618 1338.94 30.299C1338.94 29.8979 1338.07 29.9212 1337.87 30.3223C1337.76 30.549 1337.64 30.5257 1337.5 30.2525C1337.33 29.9328 1337.25 29.956 1337.05 30.3688C1336.86 30.7699 1336.71 30.8164 1336.35 30.578C1336.1 30.4095 1335.89 30.0839 1335.89 29.8514C1335.89 29.148 1334.78 29.3224 1334.59 30.0549L1334.42 30.6885L1334.11 29.9851L1333.79 29.2817L1333.79 29.9328C1333.78 30.4327 1333.64 30.5838 1333.19 30.5838C1332.87 30.5838 1332.61 30.456 1332.61 30.2932C1332.61 30.1362 1332.45 30.0025 1332.25 30.0025C1332.06 30.0025 1331.9 30.1362 1331.9 30.2932C1331.9 30.4501 1331.59 30.5838 1331.21 30.5838C1330.83 30.5838 1330.46 30.7117 1330.38 30.8745C1330.3 31.0373 1329.93 31.1652 1329.57 31.1652C1329.1 31.1652 1328.87 31.3396 1328.78 31.7465C1328.63 32.4557 1327.95 32.508 1327.56 31.8395C1327.29 31.3919 1327.24 31.3977 1326.86 31.9499C1326.61 32.3045 1326.27 32.4847 1326 32.4034C1325.71 32.3103 1325.56 32.415 1325.56 32.6998C1325.56 32.9382 1325.39 33.2172 1325.19 33.316C1324.62 33.5892 1323.92 33.5253 1323.92 33.1998C1323.92 33.037 1323.73 32.9091 1323.5 32.9091C1323.26 32.9091 1322.93 32.7463 1322.76 32.5487C1322.52 32.258 1322.43 32.258 1322.34 32.5487C1322.28 32.7638 1321.82 32.9091 1321.22 32.9091C1320.65 32.9091 1320.13 33.037 1320.05 33.1998C1319.97 33.3567 1319.49 33.4904 1318.98 33.4904C1318.28 33.4904 1318 33.3451 1317.79 32.8452L1317.51 32.1999L1317.3 32.9091C1317.13 33.4904 1317.05 33.5427 1316.86 33.1881C1316.68 32.8277 1316.61 32.8219 1316.43 33.1591C1316.14 33.7229 1315.7 33.2986 1315.7 32.4499C1315.7 32.0139 1315.57 31.7407 1315.35 31.7407C1315.16 31.7407 1315 31.8685 1315 32.0313C1315 32.4499 1314.36 32.3917 1314.2 31.9616C1314.13 31.7639 1314.1 31.8627 1314.12 32.1825C1314.19 32.88 1313.17 33.1881 1312.86 32.5719C1312.72 32.2929 1312.65 32.3685 1312.65 32.8393C1312.65 33.5311 1312.07 33.7462 1311.87 33.13C1311.77 32.8393 1311.74 32.8393 1311.73 33.13C1311.7 33.7171 1311.05 33.5485 1310.89 32.9091C1310.73 32.2638 1310.39 32.1418 1310.25 32.6766C1310.19 32.8742 1309.78 33.0137 1309.29 32.9963C1308.81 32.9789 1308.42 33.0602 1308.42 33.1823C1308.42 33.4788 1306.59 34.1357 1306.32 33.9322C1306.2 33.8392 1306 33.9962 1305.87 34.281C1305.68 34.6879 1305.55 34.7286 1305.21 34.4728C1304.9 34.2403 1304.67 34.2403 1304.37 34.4728C1304.05 34.7228 1303.9 34.6937 1303.72 34.3566C1303.52 33.9845 1303.42 34.0194 1303.03 34.5949C1302.55 35.3099 1302.09 35.2227 1302.09 34.4205C1302.09 34.0427 1302.01 34.0717 1301.72 34.5833C1301.52 34.9379 1301.17 35.2285 1300.94 35.2285C1300.72 35.2285 1300.31 35.4901 1300.03 35.8098C1299.75 36.1296 1299.31 36.3912 1299.05 36.3912C1298.78 36.3912 1298.57 36.5249 1298.57 36.6818C1298.57 37.362 1298.07 36.8969 1297.94 36.1005C1297.78 35.0948 1297.23 34.9263 1297.12 35.8505C1297.02 36.6179 1296.22 37.3038 1296.05 36.7516C1295.99 36.5539 1295.64 36.3912 1295.26 36.3912C1294.88 36.3912 1294.58 36.2633 1294.58 36.1005C1294.58 35.9377 1294.37 35.8098 1294.11 35.8098C1293.85 35.8098 1293.64 35.6762 1293.64 35.5134C1293.64 35.3448 1293.39 35.2925 1293.05 35.3971C1292.66 35.5192 1292.43 35.4436 1292.34 35.1588C1292.26 34.9088 1291.85 34.7228 1291.34 34.6995C1290.71 34.6705 1290.57 34.7402 1290.82 34.9321C1291.1 35.1472 1291.11 35.275 1290.88 35.5657C1290.66 35.8389 1290.59 35.8447 1290.59 35.5773C1290.59 35.3855 1290.43 35.2285 1290.23 35.2285C1290.04 35.2285 1289.88 35.0948 1289.88 34.9379C1289.88 34.7751 1289.68 34.6472 1289.43 34.6472C1289.18 34.6472 1288.94 34.4845 1288.88 34.2868C1288.77 33.8799 1287.77 34.4031 1286.98 35.275C1286.65 35.6471 1286.39 35.6994 1285.81 35.4959C1284.81 35.1413 1283.48 35.1588 1283.66 35.525C1283.88 35.9784 1283.55 36.9725 1283.18 36.9725C1282.99 36.9725 1282.84 36.8155 1282.84 36.6237C1282.84 36.3505 1282.78 36.3505 1282.56 36.6237C1282.4 36.8155 1282.03 36.9725 1281.73 36.9725C1281.44 36.9725 1281.19 37.1062 1281.19 37.2631C1281.19 37.4259 1280.98 37.5538 1280.72 37.5538C1280.47 37.5538 1280.26 37.6875 1280.26 37.8444C1280.26 38.0072 1279.89 38.1351 1279.45 38.1351C1279.01 38.1351 1278.59 38.2979 1278.51 38.5013C1278.43 38.699 1278.41 38.5711 1278.47 38.2107C1278.59 37.3852 1278 37.3213 1277.79 38.1351C1277.64 38.7513 1277.09 38.9141 1276.85 38.4258C1276.77 38.2688 1276.14 38.1351 1275.44 38.1351C1274.75 38.1351 1274.11 38.0072 1274.03 37.8444C1273.95 37.6875 1273.7 37.5538 1273.46 37.5538C1273.04 37.5538 1272 36.1703 1271.48 34.9204C1271.34 34.5658 1270.69 33.9497 1270.04 33.5544C1269.4 33.1591 1268.69 32.7173 1268.46 32.5778C1268.24 32.4382 1267.8 32.3278 1267.48 32.3278C1267.16 32.3278 1266.84 32.1999 1266.76 32.0371C1266.68 31.8744 1266.36 31.7465 1266.05 31.7465C1265.74 31.7465 1265.33 31.4616 1265.13 31.1012L1264.76 30.456V31.1012C1264.76 31.822 1264.7 31.8627 1264.11 31.4907C1263.89 31.3512 1263.21 30.9326 1262.59 30.5722C1261.98 30.2118 1261.48 29.8049 1261.48 29.6712C1261.48 29.5375 1261.27 29.427 1261.02 29.427C1260.77 29.427 1260.5 29.2991 1260.42 29.1364C1260.34 28.9794 1260.02 28.8457 1259.72 28.8457C1259.41 28.8457 1259.09 28.7178 1259.01 28.5551C1258.93 28.3981 1258.46 28.2644 1257.96 28.2644C1257.45 28.2644 1256.98 28.1365 1256.9 27.9738C1256.82 27.8168 1256.15 27.6831 1255.41 27.6831C1254.66 27.6831 1253.96 27.561 1253.83 27.4157C1253.65 27.189 1251.54 26.8809 1249.5 26.7879C1248.18 26.7297 1245.85 27.0843 1245.34 27.4273C1244.9 27.718 1244.51 27.718 1243.36 27.4273C1242.58 27.2297 1241.76 26.9216 1241.53 26.7472C1241.05 26.3751 1240.06 26.6251 1239.56 27.2471C1239.15 27.7587 1234.84 27.8807 1234.6 27.3924C1234.52 27.2297 1234.09 27.1018 1233.65 27.1018C1233.2 27.1018 1232.84 26.9681 1232.84 26.8111C1232.84 26.6484 1232.63 26.5205 1232.37 26.5205C1232.11 26.5205 1231.9 26.3868 1231.9 26.2298C1231.9 26.0612 1231.07 25.9392 1229.89 25.9392C1228.51 25.9392 1227.73 25.8055 1227.35 25.5032C1226.65 24.9335 1221.95 24.5382 1221.71 25.0265C1221.51 25.4218 1218.75 25.4799 1218.75 25.0904C1218.75 24.9451 1218.11 24.8463 1217.33 24.8695C1216.3 24.9044 1215.86 24.8056 1215.7 24.4859C1215.55 24.1952 1215.47 24.172 1215.47 24.4161C1215.47 24.6254 1215.16 24.7765 1214.76 24.7765C1214.36 24.7765 1213.66 24.9742 1213.2 25.2125C1212.39 25.6311 1209.63 25.5904 1208.66 25.1544C1208.46 25.0672 1207.58 24.9626 1206.68 24.916C1205.18 24.8463 1205.01 24.7707 1204.39 23.8987C1204.03 23.3814 1203.73 23.1023 1203.73 23.2884C1203.73 23.8174 1202.92 23.672 1202.38 23.0384C1202.08 22.7012 1201.81 22.5792 1201.73 22.7477C1201.54 23.1256 1200.21 23.1198 1200.21 22.7419C1200.21 22.585 1200.09 22.4513 1199.95 22.4513C1199.79 22.4513 1199.83 22.7361 1200.07 23.1837C1200.42 23.8348 1200.42 23.9336 1200.1 24.0848C1199.56 24.3405 1199.02 23.9918 1199.18 23.4802C1199.27 23.1663 1199.18 23.0326 1198.84 23.0326C1198.57 23.0326 1198.29 22.9047 1198.21 22.7419C1198.13 22.585 1197.82 22.4513 1197.51 22.4513C1197.21 22.4513 1196.91 22.2885 1196.84 22.0909C1196.75 21.8002 1196.72 21.8002 1196.71 22.0909C1196.68 22.521 1195.51 22.5908 1195.51 22.1606C1195.51 22.0037 1195.19 21.87 1194.81 21.87C1194.42 21.87 1194.1 21.7363 1194.1 21.5735C1194.1 21.4049 1193.8 21.4689 1193.4 21.7246C1193.01 21.9746 1192.7 22.2885 1192.7 22.428C1192.7 22.8582 1191.76 22.4106 1191.43 21.8176C1191.12 21.2712 1191.11 21.2712 1190.99 21.8525C1190.82 22.6431 1190.24 22.6082 1189.95 21.7944L1189.71 21.1433L1189.55 21.7944C1189.42 22.2769 1189.2 22.4455 1188.69 22.4455C1188.31 22.4455 1188 22.3118 1188 22.1432C1188 21.9455 1187.82 21.963 1187.48 22.1839C1187.1 22.4397 1186.94 22.4397 1186.88 22.1955C1186.72 21.6258 1186.36 21.8293 1186.36 22.4803C1186.36 23.0326 1186.26 23.0791 1185.46 22.9221C1184.85 22.8001 1184.41 22.8815 1184.11 23.1547C1183.71 23.5209 1183.62 23.4918 1183.37 22.9338C1183.22 22.585 1183.08 22.4629 1183.08 22.6664C1183.07 22.864 1182.81 23.0268 1182.48 23.0268C1182.04 23.0268 1181.9 22.8756 1181.9 22.4048C1181.9 21.8351 1181.81 21.8002 1180.85 21.963C1179.93 22.1199 1179.82 22.0792 1179.96 21.6491C1180.07 21.277 1179.97 21.3177 1179.55 21.8002C1178.76 22.7012 1177.13 22.5501 1176.49 21.5154C1176.43 21.4049 1175.84 21.1433 1175.2 20.9399C1174.56 20.7364 1173.97 20.4457 1173.88 20.3062C1173.79 20.1493 1173.44 20.1667 1173.04 20.3469C1172.32 20.655 1172.23 20.5853 1171.58 19.2889C1171.42 18.975 1171.24 19.0913 1170.71 19.8237L1170.03 20.7655L1168.98 20.1318C1168.4 19.7831 1167.75 19.3761 1167.52 19.2308C1167.3 19.0855 1166.9 18.9634 1166.64 18.9634C1166.38 18.9634 1166.17 18.8355 1166.17 18.6727C1166.17 18.51 1165.81 18.3821 1165.37 18.3821C1164.93 18.3821 1164.51 18.2193 1164.45 18.0217C1164.35 17.731 1164.33 17.731 1164.31 18.0217C1164.28 18.6204 1162.85 18.446 1162.27 17.7717L1161.74 17.1613L1161.21 17.7717C1160.92 18.1089 1160.48 18.3821 1160.23 18.3821C1159.93 18.3821 1159.83 18.5274 1159.91 18.8064C1159.99 19.039 1159.95 19.3006 1159.84 19.3878C1159.73 19.475 1159.55 18.9867 1159.46 18.3065C1159.28 17.109 1159.27 17.0974 1159.14 17.9403C1159.01 18.7774 1158.95 18.8181 1157.62 18.8995C1156.67 18.9576 1156.17 18.8704 1156.04 18.6088C1155.89 18.3181 1155.84 18.3123 1155.84 18.5914C1155.84 18.789 1155.65 18.9518 1155.42 18.9518C1155.18 18.9518 1154.87 19.1029 1154.72 19.2948C1154.51 19.5563 1154.3 19.5505 1153.81 19.2773C1153.39 19.039 1153.13 19.0215 1153.04 19.2192C1152.86 19.5738 1149.27 19.597 1149.27 19.2482C1149.27 19.1145 1148 18.9983 1146.45 18.9867C1144.78 18.975 1143.63 19.0855 1143.63 19.2541C1143.63 19.411 1142.95 19.5389 1142.11 19.5389C1141.25 19.5389 1140.58 19.411 1140.58 19.2482C1140.58 19.0855 1139.91 18.9576 1139.03 18.9576H1137.47L1137.61 19.7889C1137.77 20.7945 1137.42 21.2828 1136.55 21.2828C1136.04 21.2828 1135.89 21.4224 1135.89 21.8642C1135.89 22.3699 1135.82 22.399 1135.43 22.0967C1135.05 21.8002 1134.91 21.8525 1134.54 22.4222C1134.17 22.9919 1134.01 23.05 1133.6 22.771C1132.98 22.3641 1129.63 22.335 1129.43 22.7303C1129.24 23.1082 1127.04 23.1082 1126.85 22.7303C1126.77 22.5734 1126.5 22.4397 1126.25 22.4397C1125.99 22.4397 1125.79 22.3118 1125.79 22.149C1125.79 21.7711 1124.92 21.7711 1124.74 22.149C1124.66 22.3118 1124.19 22.4397 1123.7 22.4397C1123.03 22.4397 1122.63 22.2246 1122.07 21.5677C1121.31 20.6666 1120.86 20.4632 1120.86 21.0154C1120.86 21.2073 1120.64 21.2712 1120.31 21.1666C1120 21.0678 1119.58 21.1724 1119.32 21.4165C1119.07 21.6491 1118.45 21.8409 1117.95 21.8467C1117.44 21.8525 1116.86 22.0327 1116.66 22.2536C1116.07 22.8814 1115.12 23.05 1114.63 22.614C1114.32 22.335 1114.09 22.306 1113.81 22.5152C1113.54 22.7245 1113.2 22.678 1112.63 22.3525C1111.7 21.8235 1110.19 21.9746 1107.22 22.8873C1106.86 22.9977 1106.53 22.9454 1106.44 22.7594C1106.24 22.3641 1104.98 22.3408 1104.78 22.7303C1104.55 23.1895 1103.83 23.0675 1103.41 22.492C1103.12 22.0851 1103.09 21.8874 1103.31 21.62C1103.52 21.3526 1103.49 21.277 1103.19 21.277C1102.97 21.277 1102.79 21.4049 1102.79 21.5677C1102.79 21.7246 1102.31 21.8583 1101.73 21.8583C1101.15 21.8583 1100.68 21.7304 1100.68 21.5677C1100.68 21.4049 1100.46 21.277 1100.21 21.277C1099.95 21.277 1099.74 21.1433 1099.74 20.9864C1099.74 20.8236 1099.37 20.6957 1098.92 20.6957C1098.46 20.6957 1098.09 20.8236 1098.09 20.9864C1098.09 21.1433 1097.78 21.277 1097.41 21.277C1097.03 21.277 1096.68 21.4282 1096.63 21.6142C1096.58 21.8176 1095.93 21.9688 1095.03 21.992C1094.2 22.0153 1093.11 22.2594 1092.6 22.5268C1092.11 22.8001 1091.61 23.021 1091.51 23.021C1091.4 23.021 1090.94 23.2942 1090.48 23.6313C1090.01 23.9685 1089.64 24.1022 1089.64 23.922C1089.64 23.5209 1088.31 23.4976 1088.12 23.8929C1088.04 24.0557 1087.71 24.1836 1087.4 24.1836C1087.08 24.1836 1086.82 24.3173 1086.82 24.4742C1086.82 24.637 1086.16 24.7649 1085.31 24.7649C1084.48 24.7649 1083.73 24.8928 1083.65 25.0556C1083.57 25.2125 1083.31 25.3462 1083.05 25.3462C1082.8 25.3462 1082.6 25.4741 1082.6 25.6369C1082.6 25.8171 1081.39 25.9275 1079.44 25.9275C1077.59 25.9275 1076.23 26.0496 1076.14 26.2182C1075.94 26.6309 1074.54 26.5786 1074.18 26.1484C1074 25.9159 1073.84 25.8868 1073.73 26.0845C1073.4 26.6542 1072.35 27.0669 1072.07 26.7356C1071.9 26.5205 1071.72 26.5147 1071.52 26.7181C1071.35 26.8809 1070.76 27.0843 1070.21 27.1715C1069.38 27.3052 1069.09 27.2064 1068.53 26.6309C1067.83 25.8927 1067.23 25.7357 1066.99 26.224C1066.8 26.6077 1063.35 26.6077 1063.35 26.224C1063.35 26.0612 1063 25.9333 1062.58 25.9333C1061.48 25.9333 1060.59 25.3404 1060.27 24.4103C1060.03 23.672 1059.9 23.6081 1058.67 23.6081C1057.94 23.6081 1057.24 23.4918 1057.11 23.3465C1056.61 22.7477 1053.52 22.5559 1049.79 22.8989C1048.48 23.021 1047.86 22.9745 1047.86 22.7594C1047.86 22.2362 1047.28 22.4106 1046.97 23.0268C1046.63 23.6895 1045.31 23.829 1044.85 23.2535C1044.62 22.9745 1044.46 22.9745 1044.1 23.2535C1043.84 23.4511 1043 23.6081 1042.22 23.6081C1041.44 23.6081 1040.81 23.736 1040.81 23.8987C1040.81 24.0615 1040.55 24.1894 1040.22 24.1894C1039.91 24.1894 1039.64 24.0615 1039.64 23.8987C1039.64 23.486 1038.15 23.5383 1037.8 23.9627C1037.58 24.2417 1037.42 24.2417 1037.06 23.9627C1036.5 23.5325 1035.65 23.4918 1035.65 23.8987C1035.65 24.0615 1035.51 24.1894 1035.33 24.1894C1035.15 24.1894 1034.75 24.4336 1034.45 24.7242C1033.71 25.4334 1032.05 25.7008 1031.5 25.2009C1031.22 24.9509 1030.98 24.916 1030.8 25.1021C1030.61 25.2997 1030.48 25.2009 1030.37 24.7882C1030.18 24.0383 1029.77 24.0325 1028.79 24.7707C1027.73 25.5671 1027.08 25.5032 1026.32 24.5208C1025.9 23.9801 1025.34 23.6255 1024.73 23.5209C1024.22 23.4279 1023.44 23.2651 1023 23.1547C1022.45 23.0152 1022.25 23.05 1022.36 23.2709C1022.61 23.7709 1021.97 24.7765 1021.41 24.7765C1021.13 24.7765 1020.85 24.6138 1020.78 24.4161C1020.71 24.2185 1020.65 24.3929 1020.64 24.8056C1020.63 25.2241 1020.32 25.9682 1019.93 26.4682C1019.32 27.2413 1019.11 27.3517 1018.46 27.189C1017.81 27.032 1017.73 27.0669 1017.97 27.4215C1018.36 28.0086 1017.99 28.6597 1017.4 28.4272C1017.05 28.2935 1016.9 28.3981 1016.8 28.8341C1016.71 29.2875 1016.48 29.4212 1015.85 29.4212C1015.39 29.4212 1014.95 29.2817 1014.87 29.1189C1014.77 28.9329 1014.55 29.0434 1014.3 29.4096C1013.76 30.1711 1013.46 30.1595 1013.01 29.3573C1012.81 29.0027 1012.64 28.8748 1012.64 29.0666C1012.64 29.6189 1012.15 29.4852 1011.68 28.7992L1011.23 28.1714V29.0143C1011.23 29.6479 1011.07 29.9502 1010.59 30.2292C1010.18 30.4676 1009.92 30.4908 1009.87 30.299C1009.73 29.77 1009.39 29.9851 1009.31 30.6536C1009.27 31.0663 1009.09 31.2931 1008.83 31.2698C1008.6 31.2465 1008.42 31.3454 1008.42 31.4907C1008.42 31.8453 1007.54 31.8162 1007.36 31.4558C1007.28 31.2931 1006.97 31.1652 1006.66 31.1652C1006.35 31.1652 1006.03 31.0373 1005.95 30.8745C1005.87 30.7117 1005.43 30.5838 1004.98 30.5838C1004.35 30.5838 1004.12 30.4443 1004.03 30.0025C1003.94 29.5724 1003.71 29.4212 1003.16 29.4212C1002.74 29.4212 1002.28 29.2643 1002.13 29.0724C1001.91 28.7992 1001.85 28.869 1001.85 29.3631C1001.85 30.049 1001.07 30.2816 1000.77 29.6828C1000.68 29.491 1000.47 29.7293 1000.26 30.2641C1000.02 30.8978 999.744 31.1652 999.349 31.1652C999.044 31.1652 998.795 31.0605 998.795 30.9384C998.795 30.8106 998.481 30.4792 998.1 30.2002C997.715 29.9212 997.227 29.4735 997.011 29.2061C996.645 28.7527 996.593 28.7701 996.18 29.3922C995.781 30.0025 995.743 30.0142 995.743 29.5084C995.743 28.8515 995.316 28.2528 994.846 28.2528C994.569 28.2528 994.565 28.3342 994.813 28.7004C995.217 29.3108 994.752 29.9618 994.264 29.4619C994.01 29.2003 993.874 29.2875 993.621 29.8688C993.419 30.3339 993.151 30.5606 992.907 30.4792C992.686 30.4095 992.348 30.5897 992.146 30.8745C991.789 31.3919 990.949 31.3628 990.677 30.8222C990.606 30.6827 990.31 30.5664 990.019 30.5664C989.733 30.5664 989.263 30.299 988.977 29.9735L988.465 29.3805L987.878 30.1072C987.554 30.5083 987.291 31.0373 987.291 31.2814C987.291 31.5372 987.089 31.729 986.821 31.729C986.563 31.729 986.352 31.8569 986.352 32.0197C986.352 32.1825 985.727 32.3103 984.943 32.3103C984.168 32.3103 983.534 32.4092 983.534 32.5312C983.53 32.8103 982.379 33.473 981.891 33.473C981.684 33.473 981.389 33.316 981.234 33.1242C981.027 32.8626 980.886 32.8568 980.689 33.1009C980.492 33.3451 980.313 33.3451 980.003 33.1067C979.703 32.8742 979.28 32.8684 978.51 33.0893C977.914 33.2579 977.43 33.2811 977.43 33.1416C977.43 33.0021 977.069 32.8917 976.623 32.8917C976.181 32.8917 975.749 32.7638 975.669 32.601C975.59 32.4382 975.331 32.3103 975.092 32.3103C974.852 32.3103 974.603 32.1476 974.547 31.9499C974.463 31.6593 974.373 31.6593 974.129 31.9441C973.885 32.229 973.739 32.2057 973.397 31.8279C973.162 31.5663 972.969 31.1884 972.969 30.9908C972.969 30.7931 972.814 30.5548 972.617 30.4618C972.406 30.3629 972.27 30.4618 972.27 30.7234C972.27 30.9559 972.176 31.1477 972.058 31.1477C971.946 31.1477 971.795 31.4093 971.73 31.729C971.608 32.3103 970.861 32.5603 970.861 32.0197C970.861 31.8569 970.274 31.7465 969.518 31.7697C968.701 31.793 968.147 31.6767 968.091 31.4791C968.044 31.2989 967.649 31.1477 967.222 31.1477C966.79 31.1477 966.386 30.985 966.32 30.7873C966.245 30.5606 966.194 30.6129 966.184 30.9152C966.161 31.4907 965.677 31.7058 964.437 31.6883C963.94 31.6825 963.418 31.822 963.278 31.9964C963.137 32.1708 962.461 32.3162 961.775 32.3162C960.779 32.3162 960.531 32.2232 960.531 31.8395C960.531 31.5779 960.343 31.1942 960.117 30.9908C959.77 30.6769 959.624 30.7117 959.15 31.2524C958.756 31.6942 958.558 31.7755 958.483 31.5198C958.291 30.8571 957.713 31.1303 957.713 31.8802C957.713 32.6766 957.45 32.8045 956.957 32.2406C956.483 31.7 955.647 31.1477 955.304 31.1477C955.135 31.1477 954.849 31.4093 954.661 31.729C954.412 32.1534 954.055 32.3103 953.318 32.3103C952.764 32.3103 952.313 32.1825 952.313 32.0197C952.313 31.4791 951.665 31.7232 951.543 32.3103C951.351 33.2114 949.609 32.944 948.998 31.9209C948.923 31.7872 948.524 31.6477 948.12 31.6128C947.496 31.5605 947.383 31.6476 947.383 32.2173C947.383 32.8277 947.28 32.8858 946.209 32.8858C945.566 32.8858 945.035 32.758 945.035 32.5952C945.035 32.4324 944.824 32.3045 944.566 32.3045C944.307 32.3045 944.096 32.4324 944.096 32.5952C944.096 32.758 943.833 32.8858 943.509 32.8858C943.11 32.8858 942.922 33.0486 942.922 33.3916C942.922 33.7927 942.805 33.7287 942.359 33.0893C941.997 32.5661 941.762 32.4092 941.697 32.6417C941.635 32.88 941.316 32.6824 940.795 32.072C940.194 31.3744 939.771 31.1361 939.137 31.1361C938.48 31.1361 938.255 31.0024 938.161 30.5548C938.086 30.206 937.841 29.9735 937.55 29.9735C937.278 29.9735 936.926 29.7119 936.766 29.3922C936.297 28.4621 936.118 28.7062 936.118 30.2641C936.118 31.0605 936.221 31.7174 936.353 31.7174C936.714 31.7174 936.625 33.1591 936.236 33.6474C935.921 34.031 935.804 34.0136 935.17 33.4555C934.775 33.1126 934.301 32.9033 934.113 32.9905C933.902 33.0893 933.77 32.9789 933.77 32.694C933.77 32.3627 933.93 32.2697 934.348 32.3685C934.667 32.444 934.869 32.3859 934.794 32.2348C934.719 32.0894 934.855 31.7814 935.095 31.5605C935.644 31.0489 935.127 30.9966 934.418 31.4965C933.78 31.9441 932.596 33.4265 932.596 33.7811C932.596 33.9264 932.385 34.0427 932.127 34.0427C931.812 34.0427 931.657 33.8508 931.657 33.4613C931.657 33.0951 931.507 32.8858 931.244 32.9033C931 32.9149 930.953 32.9847 931.127 33.0719C931.718 33.3683 931.432 34.0427 930.718 34.0427C930.328 34.0427 930.014 34.1705 930.014 34.3333C930.014 34.4903 930.159 34.624 930.338 34.624C930.911 34.624 930.915 35.3448 930.347 36.1586C929.807 36.9376 929.075 37.2224 929.075 36.6586C929.075 35.9726 928.126 36.4551 927.37 37.5305C926.915 38.17 926.389 38.6932 926.192 38.6932C925.999 38.6932 925.792 38.9373 925.727 39.2338C925.638 39.6523 925.393 39.7744 924.642 39.7744C924.112 39.7744 923.675 39.664 923.675 39.5244C923.675 39.3849 923.463 39.2745 923.205 39.2745C922.947 39.2745 922.736 39.1408 922.736 38.9838C922.736 38.8269 922.524 38.6932 922.266 38.6932C922.008 38.6932 921.797 38.8559 921.792 39.0536C921.792 39.3152 921.731 39.3035 921.585 39.0129C921.416 38.6815 921.28 38.7222 920.839 39.228C920.322 39.8267 919.463 40.0186 917.984 39.8732C917.627 39.8383 917.336 39.9488 917.336 40.1174C917.336 40.286 917.134 40.4255 916.88 40.4255C916.631 40.4255 916.359 40.5534 916.279 40.7161C916.012 41.2568 915.03 41.0417 914.866 40.4022C914.777 40.0592 914.579 39.8616 914.396 39.9488C914.227 40.0302 913.96 39.9081 913.805 39.6814C913.65 39.4489 913.326 39.2629 913.086 39.2629C912.842 39.2629 912.513 39.0013 912.354 38.6815C912.189 38.3618 911.861 38.1002 911.616 38.1002C911.372 38.1002 910.973 37.8212 910.734 37.4724L910.292 36.8446V37.4724C910.292 38.3037 909.649 38.2804 909.522 37.4433L909.419 36.7923L909.386 37.4433C909.367 37.8038 909.25 38.0944 909.118 38.0944C908.992 38.0944 908.884 38.2979 908.884 38.5536C908.884 39.0768 908.339 39.8383 907.963 39.8383C907.827 39.8383 907.71 39.693 907.71 39.5128C907.71 39.2977 907.611 39.2803 907.419 39.4663C907.259 39.6175 906.418 39.7686 905.554 39.8035C904.686 39.8325 903.507 40.036 902.925 40.2569C901.77 40.6871 901.629 40.6289 901.573 39.7221C901.549 39.3907 901.474 39.7686 901.394 40.5708C901.263 41.9776 901.23 42.0241 900.436 42.1171C899.985 42.1694 899.563 42.3206 899.497 42.4543C899.431 42.5821 899.168 42.7391 898.91 42.7914C898.567 42.867 898.417 42.71 898.365 42.2392C898.323 41.8788 898.192 41.5881 898.07 41.5881C897.952 41.5881 897.854 41.3091 897.854 40.9603V40.3325L897.412 40.9603C897.173 41.3033 896.858 41.5881 896.708 41.5881C896.562 41.5881 896.445 41.716 896.445 41.8788C896.445 42.4426 895.309 42.1869 895.154 41.5881C894.952 40.8091 894.426 40.8498 894.229 41.6579L894.069 42.3089L893.811 41.6579C893.67 41.2974 893.421 41.0068 893.257 41.0068C893.097 41.0068 892.9 40.844 892.825 40.6464C892.717 40.3557 892.66 40.3557 892.552 40.6464C892.477 40.844 892.209 41.0068 891.965 41.0068C891.646 41.0068 891.514 40.8033 891.514 40.2976C891.514 39.9081 891.406 39.507 891.28 39.4082C891.143 39.3035 891.045 39.6 891.045 40.1174C891.045 40.7103 890.928 41.0068 890.693 41.0068C890.496 41.0068 890.341 40.7452 890.341 40.4255C890.341 39.8209 889.74 39.6058 889.589 40.1581C889.538 40.3499 889.251 40.3906 888.847 40.2685C888.284 40.0941 888.213 39.9546 888.336 39.3035C888.434 38.7745 888.411 38.6699 888.256 38.9548C888.115 39.2163 887.673 39.35 887.058 39.321C886.448 39.2919 885.945 39.4431 885.72 39.7163C885.513 39.9721 885.171 40.0883 884.917 39.9895C884.668 39.8907 884.471 39.9546 884.471 40.1232C884.471 40.2918 884.161 40.4313 883.786 40.4313C883.302 40.4313 883.048 40.2569 882.945 39.85C882.771 39.1698 882.231 39.0943 881.752 39.6872C881.456 40.0534 881.466 40.1406 881.804 40.379C882.043 40.5417 882.137 40.8382 882.053 41.1231C881.841 41.8032 881.471 41.7044 881.353 40.9428L881.25 40.2918L881.217 40.9428C881.198 41.3033 881.067 41.5939 880.926 41.5939C880.766 41.5939 880.7 41.1521 880.757 40.4313C880.841 39.3326 880.808 39.2687 880.212 39.2687C879.865 39.2687 879.541 39.1117 879.489 38.9257C879.428 38.7048 878.954 38.606 878.174 38.6525C877.094 38.7106 876.93 38.6467 876.737 38.0537C876.62 37.6875 876.512 37.5189 876.507 37.6759C876.498 37.8386 876.277 38.1351 876.01 38.3386C875.502 38.7339 875.08 38.4548 874.784 37.5247C874.704 37.2748 874.643 37.4259 874.629 37.891C874.61 38.7571 874.009 38.9896 873.488 38.3444C873.267 38.0712 873.206 38.0712 873.206 38.3444C873.206 38.5362 873.047 38.6932 872.854 38.6932C872.643 38.6932 872.497 38.4258 872.497 38.0363C872.492 37.4957 872.45 37.455 872.244 37.8154C872.056 38.1409 871.967 38.1642 871.877 37.8851C871.69 37.3154 871.328 37.4608 871.328 38.106C871.328 38.8734 870.919 38.8443 870.375 38.0363L869.933 37.3852L869.924 38.4606C869.919 39.0478 869.811 39.6116 869.685 39.7105C869.553 39.8093 869.45 39.7511 869.45 39.5826C869.45 39.414 869.13 39.2745 868.745 39.2745C868.196 39.2745 868.041 39.4024 868.041 39.8558C868.041 40.1813 867.881 40.4371 867.689 40.4371C867.492 40.4371 867.337 40.1813 867.337 39.8558C867.337 39.5361 867.238 39.2745 867.121 39.2745C867.003 39.2745 866.966 39.5361 867.031 39.8558C867.125 40.3034 867.041 40.4371 866.661 40.4371C866.238 40.4371 866.163 40.6115 866.163 41.5532C866.163 42.9426 865.604 43.6227 864.303 43.8378C863.571 43.9599 863.345 44.1226 863.345 44.5412C863.345 45.2678 862.749 45.2329 862.326 44.483C862.115 44.1052 861.927 43.9947 861.829 44.1924C861.505 44.8493 860.528 44.5237 860.082 43.6053C859.805 43.0414 859.58 42.8321 859.476 43.0414C859.354 43.2855 859.227 43.2797 858.983 43.0298C858.734 42.774 858.65 42.774 858.65 43.0239C858.65 43.4599 855.781 43.3785 855.541 42.9367C855.424 42.71 855.368 42.7275 855.368 42.9774C855.363 43.1751 855.175 43.3379 854.95 43.3379C854.724 43.3379 854.405 43.5994 854.245 43.9192C854.081 44.2389 853.738 44.5005 853.485 44.5005C853.226 44.5005 853.015 44.6342 853.015 44.7911C853.015 44.9481 852.855 45.0818 852.663 45.0818C852.47 45.0818 852.311 44.9423 852.311 44.7679C852.311 44.576 851.883 44.4889 851.212 44.5412C850.508 44.5935 850.08 44.5005 850.019 44.2738C849.86 43.675 849.277 43.8843 848.554 44.7911C847.845 45.6922 846.826 45.9538 846.577 45.2969C846.502 45.0992 846.493 45.3899 846.563 45.9421C846.662 46.7327 846.624 46.8722 846.399 46.5932C846.244 46.3956 845.925 46.2386 845.69 46.2386C845.418 46.2386 845.258 46.0061 845.244 45.5875C845.22 45.0178 845.202 45.0062 845.098 45.4945C844.948 46.2328 844.455 46.8199 843.995 46.8199C843.793 46.8199 843.624 46.9943 843.624 47.2094C843.624 47.6105 842.901 48.5639 842.596 48.5639C842.506 48.5639 842.319 48.1686 842.178 47.6861C841.933 46.8141 841.929 46.8141 841.525 47.3896C841.168 47.8953 841.037 47.9244 840.501 47.6163C840.168 47.4187 839.788 47.0001 839.661 46.6804C839.534 46.3607 839.426 46.2619 839.417 46.4595C839.407 46.6572 839.107 46.8199 838.745 46.8199C838.384 46.8199 837.97 46.9652 837.83 47.1396C837.642 47.3722 837.524 47.2908 837.412 46.849C837.252 46.227 836.116 45.9421 836.116 46.5293C836.116 46.692 835.904 46.8199 835.646 46.8199C835.374 46.8199 835.176 47.0118 835.176 47.2792C835.176 48.1628 834.021 49.058 833.988 48.2034C833.979 48.0058 833.876 48.1337 833.758 48.4941C833.561 49.1103 832.594 49.4475 832.594 48.9068C832.594 48.7731 832.223 48.6452 831.772 48.6278C831.321 48.6045 830.95 48.7266 830.95 48.8894C830.95 49.0522 830.711 49.151 830.42 49.0987C830.035 49.0289 829.87 48.7789 829.814 48.1569C829.758 47.5349 829.683 47.4187 829.532 47.7151C829.227 48.3255 827.654 48.0697 827.133 47.3198C826.771 46.8025 826.626 46.7618 826.245 47.0583C825.607 47.5524 825.372 47.5001 825.198 46.8257C825.006 46.0817 824.602 46.0817 824.447 46.8257C824.377 47.1455 824.226 47.407 824.114 47.407C824.001 47.407 823.907 47.6047 823.907 47.8547C823.907 48.1046 823.729 48.3836 823.508 48.4883C823.287 48.5929 822.813 49.0289 822.451 49.4591C821.963 50.0346 821.55 50.238 820.855 50.238C820.338 50.238 819.916 50.1276 819.916 49.9939C819.916 49.8602 819.545 50.0055 819.089 50.3252C818.178 50.9589 816.159 51.1274 816.159 50.5694C816.159 50.3834 815.845 50.6508 815.455 51.1507C814.844 51.9413 814.685 52.0169 814.29 51.7146C813.905 51.4181 813.764 51.4646 813.384 52.0052C813.14 52.3598 812.666 52.6447 812.332 52.6447C811.999 52.6447 811.661 52.7842 811.576 52.947C811.473 53.1504 811.332 53.1562 811.144 52.9644C810.971 52.7842 810.736 52.7784 810.52 52.947C810.055 53.3074 807.773 53.3016 807.594 52.9353C807.515 52.7784 807.2 52.6447 806.895 52.6447C806.59 52.6447 806.303 52.4993 806.251 52.3191C806.205 52.1331 805.627 51.9936 804.913 51.9936C803.885 51.9936 803.641 51.8948 803.547 51.4472C803.481 51.1391 803.223 50.9007 802.955 50.9007C802.697 50.9007 802.288 50.6217 802.054 50.2845C801.8 49.9241 801.471 49.7381 801.255 49.8427C801.002 49.9648 800.772 49.709 800.499 49.0057C800.067 47.8779 799.729 47.6919 799.729 48.5755C799.729 49.2266 798.917 49.4009 798.696 48.7964C798.626 48.5987 798.593 48.6976 798.621 49.0173C798.659 49.43 798.513 49.6277 798.109 49.6974C797.597 49.7846 797.56 49.7149 797.691 48.901C797.828 48.0639 797.809 48.029 797.363 48.3662C796.964 48.6685 796.851 48.6452 796.663 48.2441C796.527 47.9477 796.264 47.8198 795.973 47.9128C795.649 48.0174 795.503 47.9244 795.503 47.6105C795.503 47.2327 795.297 47.1861 794.329 47.3257C793.418 47.4594 793.155 47.407 793.146 47.0931C793.141 46.8315 792.982 46.9187 792.7 47.3431C792.282 47.9651 791.277 48.2616 791.277 47.7675C791.277 47.471 790.31 47.4942 789.93 47.8023C789.765 47.9302 789.634 47.907 789.634 47.75C789.634 47.5931 789.746 47.4187 789.883 47.3664C790.019 47.3082 790.061 47.035 789.972 46.756C789.831 46.3026 789.756 46.3316 789.291 47.0001C788.798 47.7093 788.742 47.7268 788.371 47.2675C788 46.8083 787.943 46.8199 787.502 47.4535C787.089 48.0407 786.967 48.0814 786.549 47.7558C786.281 47.5524 785.628 47.407 785.093 47.4303C783.609 47.5001 783.529 47.471 783.529 46.8083C783.529 46.2851 783.435 46.2212 782.886 46.3956C781.435 46.8432 781.069 46.7502 780.994 45.9014C780.928 45.2039 780.815 45.0992 780.111 45.0992C779.67 45.0992 779.303 44.9713 779.303 44.8086C779.303 44.6516 779.153 44.5179 778.975 44.5179C778.792 44.5179 778.59 44.3552 778.533 44.1575C778.449 43.8668 778.364 43.8668 778.115 44.1575C777.942 44.3552 777.392 44.5179 776.885 44.5179C776.157 44.5179 775.998 44.6109 776.106 44.9655C776.289 45.5468 775.57 45.8956 775.293 45.3608C775.148 45.0702 775.087 45.0585 775.082 45.3201C775.077 45.9828 774.378 45.7038 774.359 45.0295C774.345 44.6691 774.284 44.5412 774.218 44.7388C774.068 45.1981 773.382 45.2097 773.016 44.7563C772.725 44.4017 772.706 44.454 772.635 45.6805C772.607 46.2386 771.87 46.413 771.429 45.9654C771.241 45.7736 771.077 45.2039 771.062 44.7098C771.044 44.1866 770.987 44.0238 770.926 44.3261C770.776 45.0295 770.321 44.8028 770.123 43.925C770.006 43.4251 769.954 43.3727 769.94 43.7506C769.907 44.4598 769.278 45.2039 768.874 45.012C768.672 44.9132 768.499 45.1225 768.405 45.5643C768.222 46.4711 767.203 46.5583 766.977 45.6864C766.832 45.1109 766.822 45.1109 766.39 45.7561C766.038 46.2909 765.874 46.3549 765.526 46.0933C765.296 45.9189 765.066 45.4829 765.024 45.1283L764.949 44.483L764.465 45.1574C764.141 45.6108 763.949 45.7096 763.878 45.4655C763.822 45.2678 763.578 45.105 763.343 45.105C763.103 45.105 762.864 45.2678 762.808 45.4655C762.718 45.7561 762.601 45.7561 762.202 45.4655C761.606 45.0295 760.995 44.9946 760.995 45.3957C760.995 45.5585 760.789 45.6864 760.54 45.6864C760.291 45.6864 760.018 45.9479 759.939 46.2677C759.859 46.5874 759.638 46.849 759.455 46.849C759.267 46.849 759.117 46.9769 759.117 47.1396C759.117 47.3024 758.746 47.4303 758.295 47.4303C757.628 47.4303 757.473 47.3198 757.473 46.849C757.473 46.2154 756.877 46.0468 756.694 46.6281C756.619 46.8781 756.469 46.8025 756.224 46.3897C755.435 45.076 754.449 43.9424 754.093 43.9424C753.862 43.9424 753.717 43.6925 753.712 43.2914C753.712 42.7624 753.665 42.7217 753.477 43.0704C753.276 43.4599 753.219 43.4599 752.994 43.0704C752.806 42.7449 752.712 42.7275 752.623 43.0007C752.482 43.4309 751.458 43.489 751.252 43.0704C750.989 42.5415 750.726 42.7682 750.585 43.6518C750.463 44.4075 750.341 44.5237 749.669 44.5237C749.162 44.5237 748.772 44.7272 748.552 45.105C748.369 45.4248 748.026 45.6864 747.796 45.6864C747.566 45.6864 747.378 45.8142 747.378 45.977C747.378 46.57 746.509 46.2444 746.204 45.541C745.852 44.7214 745.673 44.6574 745.218 45.1806C745.039 45.3783 744.65 45.7212 744.344 45.9363C743.884 46.2619 743.762 46.2619 743.598 45.9363C743.485 45.7212 743.396 45.448 743.391 45.3259C743.387 45.0004 742.499 45.0644 742.335 45.3957C742.255 45.5585 741.302 45.6864 740.222 45.6864C738.461 45.6864 738.24 45.6282 738.109 45.105C738.024 44.7853 737.832 44.5237 737.672 44.5237C737.517 44.5237 737.24 44.268 737.057 43.954C736.789 43.4948 736.658 43.4541 736.385 43.7331C736.099 44.0296 736.071 43.9715 736.23 43.3611C736.4 42.7042 736.381 42.6752 736.01 43.053C735.662 43.4134 735.578 43.4134 735.39 43.053C735.244 42.774 735.221 42.9542 735.319 43.582C735.413 44.1982 735.371 44.5237 735.202 44.5237C735.057 44.5237 734.939 44.3958 734.939 44.2331C734.939 44.0761 734.582 43.9424 734.146 43.9424C733.483 43.9424 733.3 44.0877 733.061 44.8144C732.723 45.8201 732.366 45.9421 732.188 45.105C732.108 44.7214 731.868 44.5237 731.493 44.5237C731.042 44.5237 730.943 44.64 731.051 45.0585C731.225 45.7271 730.384 46.9827 729.919 46.756C729.732 46.6688 729.52 46.7792 729.45 47.0118C729.304 47.4826 727.896 47.5989 727.896 47.1396C727.896 46.4711 727.468 46.9246 727.074 48.0116C726.839 48.6511 726.618 49.1742 726.576 49.1742C726.539 49.1742 726.088 48.6511 725.576 48.0116C725.064 47.3722 724.51 46.849 724.351 46.849C724.186 46.849 724.336 47.2152 724.684 47.6628C725.031 48.1104 725.308 48.6685 725.304 48.8952C725.294 49.5288 724.726 50.3311 724.289 50.3311C724.078 50.3311 723.904 50.5287 723.904 50.767C723.904 51.2553 723.491 51.3309 722.979 50.9298C722.749 50.7496 722.557 50.8077 722.374 51.1158C722.181 51.4355 721.744 51.5576 720.876 51.5344C719.678 51.4995 719.65 51.5169 719.721 52.2668C719.763 52.697 719.669 53.0923 719.505 53.1562C719.34 53.2202 719.209 53.1388 719.209 52.9644C719.209 52.79 718.946 52.6505 718.622 52.6505C718.298 52.6505 718.035 52.79 718.035 52.9644C718.035 53.133 717.88 53.0807 717.683 52.8423C717.49 52.604 717.331 52.2029 717.331 51.9471C717.331 51.6913 717.176 51.4879 716.978 51.4879C716.786 51.4879 716.626 51.36 716.626 51.1972C716.626 50.7612 715.551 50.8484 715.241 51.3077C715.034 51.6157 715.053 51.7495 715.33 51.8773C715.88 52.1389 715.758 52.5633 715.086 52.7202C714.663 52.8191 714.555 52.7726 714.724 52.5633C714.894 52.354 714.776 52.0575 714.339 51.5925L713.715 50.924L714.292 50.6391C714.701 50.4357 714.748 50.3485 714.457 50.3369C714.231 50.3252 714.044 50.1857 714.044 50.0288C714.044 49.866 713.926 49.7381 713.785 49.7381C713.645 49.7381 713.583 49.9241 713.654 50.145C713.734 50.4124 713.565 50.6217 713.175 50.7438C712.724 50.8833 712.414 50.7554 711.959 50.2322C711.621 49.8486 711.161 49.4533 710.935 49.3544C710.71 49.2556 710.522 49.0347 710.522 48.8661C710.522 48.6511 710.386 48.6452 710.071 48.8545C709.432 49.2789 708.179 49.2324 708.174 48.7906C708.169 48.5406 708.104 48.558 707.953 48.8487C707.836 49.0812 707.794 49.6218 707.864 50.0462C707.968 50.6973 707.874 50.8833 707.277 51.2146C706.883 51.4297 706.507 51.8715 706.437 52.1912C706.338 52.6563 706.254 52.7028 706.023 52.418C705.864 52.2203 705.446 52.0575 705.089 52.0575C704.718 52.0575 704.314 51.8192 704.127 51.4879C703.807 50.924 703.802 50.924 703.474 51.4879C703.117 52.0982 702.431 52.2436 702.187 51.7611C702.098 51.5809 701.783 51.6913 701.375 52.0517C700.483 52.8365 700.346 52.7958 700.511 51.7669C700.642 50.9705 700.511 50.7612 700.027 50.9647C699.933 51.0054 699.891 51.3483 699.929 51.732C700.046 52.8539 699.511 53.7957 698.745 53.7957C698.384 53.7957 698.083 53.9236 698.083 54.0863C698.083 54.4235 696.529 54.4874 696.379 54.1561C696.327 54.034 696.313 54.1038 696.355 54.3014C696.449 54.7897 695.951 54.7607 695.346 54.2375C694.89 53.8422 694.81 53.8771 694.294 54.6444C693.514 55.8128 692.857 55.9058 692.045 54.9699C691.688 54.5572 691.519 54.5049 691.439 54.7723C691.307 55.1908 689.631 55.0629 689.631 54.6386C689.631 54.1212 688.72 54.3944 688.575 54.9583C688.406 55.6152 687.988 55.7082 687.565 55.1908C687.349 54.9176 687.283 55.0048 687.283 55.5803C687.283 56.3825 686.518 57.4463 686.147 57.1615C686.02 57.0627 685.865 57.1498 685.809 57.3533C685.724 57.6323 685.63 57.6382 685.41 57.3824C685.048 56.9638 685.335 56.3186 685.781 56.5278C686.025 56.6441 686.1 56.4406 686.077 55.7489C686.053 55.0629 686.02 54.9874 685.945 55.4699C685.879 55.8768 685.673 56.1209 685.391 56.1209C685.095 56.1209 684.936 56.3186 684.936 56.7022C684.936 57.0394 684.781 57.2836 684.565 57.2836C684.358 57.2836 684.133 57.022 684.067 56.7022C683.94 56.1093 683.527 55.8884 683.527 56.4116C683.527 56.5685 683.001 56.7022 682.353 56.7022C681.71 56.7022 681.179 56.8301 681.179 56.9929C681.179 57.3417 680.32 57.3824 680.146 57.0394C679.972 56.6906 677.892 56.6441 677.892 56.9871C677.892 57.1499 677.526 57.2777 677.07 57.2777C676.62 57.2777 676.253 57.144 676.253 56.9871C676.253 56.8243 676.08 56.6964 675.873 56.6964C675.638 56.6964 675.544 56.8592 675.629 57.1208C675.807 57.7021 675.371 57.9869 674.948 57.5568C674.708 57.3068 674.61 57.301 674.61 57.5335C674.61 57.7137 674.342 57.8591 674.023 57.8591C673.591 57.8591 673.436 57.7021 673.436 57.2777C673.436 56.7952 673.276 56.6964 672.511 56.6964C671.999 56.6964 671.525 56.5802 671.454 56.4348C671.206 55.9349 669.581 55.8768 669.135 56.3593C668.773 56.7487 668.679 56.7546 668.506 56.4C668.332 56.057 668.214 56.0977 667.844 56.6325C667.52 57.0975 667.13 57.2777 666.449 57.2777C665.51 57.2777 665.139 56.8766 665.303 56.0454C665.345 55.8477 665.331 55.778 665.275 55.9C665.223 56.0221 665.026 56.1209 664.838 56.1209C664.65 56.1209 664.265 56.3825 663.988 56.7022C663.444 57.3359 662.979 57.4463 662.758 56.9987C662.664 56.8185 662.458 56.8359 662.185 57.0452C661.622 57.4812 660.993 57.1615 660.993 56.4348C660.993 55.6326 659.913 54.377 659.222 54.377C658.739 54.377 658.645 54.5165 658.645 55.249C658.645 55.8942 658.537 56.1209 658.222 56.1209C657.696 56.1209 656.536 55.4699 656.536 55.1792C656.532 54.8246 655.874 54.9292 655.776 55.3013C655.719 55.5164 655.508 55.5629 655.226 55.4292C654.799 55.2257 654.799 55.1966 655.184 54.9234C655.546 54.6735 655.555 54.5804 655.259 54.2142C654.846 53.7027 654.123 53.6794 653.066 54.1503C652.371 54.4642 652.24 54.4467 652.047 54.0166C651.925 53.7434 651.672 53.598 651.479 53.691C651.235 53.8073 651.09 53.6038 650.996 53.0225C650.874 52.2668 650.761 52.1854 649.765 52.1041C649.164 52.0575 648.634 51.8948 648.591 51.7436C648.479 51.3425 646.746 51.4065 646.201 51.8308C645.83 52.1157 645.638 52.1157 645.258 51.825C644.919 51.5634 644.656 51.546 644.337 51.7553C644.088 51.918 643.562 52.0517 643.168 52.0517C642.586 52.0517 642.45 51.9297 642.45 51.4239V50.7961L641.98 51.4646C641.722 51.8308 641.51 52.3773 641.51 52.6737C641.51 53.0167 641.337 53.2085 641.041 53.2085C640.783 53.2085 640.567 53.0458 640.567 52.8481C640.562 52.6098 640.501 52.5924 640.388 52.79C640.294 52.9586 639.881 53.3888 639.463 53.7434C638.834 54.2898 638.637 54.3363 638.247 54.034C637.839 53.7143 637.669 53.8306 636.749 55.0746C635.937 56.1674 635.608 56.429 635.228 56.2837C634.96 56.1791 634.683 56.2139 634.608 56.3535C634.462 56.6499 632.824 56.0977 632.824 55.7547C632.824 55.6326 632.622 55.5338 632.378 55.5338C632.133 55.5338 631.875 55.342 631.8 55.1036C631.725 54.8653 631.528 54.7374 631.359 54.8188C631.185 54.9002 630.818 54.7025 630.537 54.377C630.006 53.7666 629.419 53.6097 629.208 54.0282C629.039 54.3654 626.719 54.3944 626.719 54.0631C626.719 53.9119 626.315 53.7899 625.818 53.7899C625.212 53.7899 624.775 53.598 624.489 53.2085C624.254 52.8888 623.813 52.6272 623.507 52.6272C623.075 52.6272 622.92 52.4296 622.812 51.7553C622.705 51.0868 622.54 50.8833 622.127 50.8833C621.794 50.8833 621.531 50.6624 621.437 50.302C621.268 49.6335 621.061 49.5753 620.662 50.0695C620.446 50.3427 620.38 50.3252 620.375 49.9997C620.375 49.6393 620.343 49.6393 620.155 50.0113C619.981 50.3427 619.868 50.3659 619.657 50.1043C619.441 49.8428 619.3 49.8602 619.042 50.1799C618.61 50.7147 618.389 50.7031 617.924 50.1334C617.666 49.8137 617.46 49.7556 617.262 49.959C617.107 50.116 616.534 50.2555 615.99 50.2613C615.243 50.2729 614.971 50.145 614.872 49.7555C614.713 49.1452 613.792 48.5697 612.975 48.5697C612.661 48.5697 612.398 48.4069 612.398 48.2093C612.398 47.9651 612.055 47.8663 611.341 47.9012C610.44 47.9477 610.289 47.8779 610.289 47.3954C610.289 46.692 609.923 46.6572 609.707 47.3431C609.557 47.8256 609.533 47.8256 609.242 47.3315C608.96 46.8606 608.918 46.9129 608.777 47.8488C608.627 48.8429 608.585 48.8778 607.838 48.7034C607.369 48.5929 606.993 48.6511 606.894 48.8371C606.636 49.3603 605.791 49.1975 605.326 48.5232C604.922 47.9535 604.824 47.9302 604.241 48.2906C603.884 48.5115 603.518 48.7324 603.424 48.7906C603.326 48.8487 603.316 48.6685 603.401 48.4011C603.532 47.9767 603.443 47.936 602.711 48.1046C602.053 48.2558 601.818 48.1918 601.645 47.8082C601.462 47.407 601.095 47.3198 599.635 47.3547C598.616 47.378 597.846 47.2733 597.846 47.1106C597.846 46.9536 597.635 46.8315 597.376 46.8315C597.118 46.8315 596.907 46.6746 596.907 46.4828C596.907 46.2909 596.761 46.3781 596.588 46.6746C596.292 47.1745 596.254 47.1745 596.047 46.7269C595.846 46.2793 595.785 46.2909 595.31 46.8374C595.029 47.1629 594.794 47.2966 594.794 47.1338C594.794 46.5932 594.127 46.8199 593.972 47.4129C593.812 48.0407 593.502 48.1686 593.268 47.7035C593.08 47.3257 591.812 47.3257 591.624 47.7035C591.544 47.8605 591.281 47.9942 591.042 47.9942C590.798 47.9942 590.535 48.2558 590.45 48.5755C590.295 49.1742 589.159 49.43 589.159 48.8661C589.159 48.7034 588.901 48.5755 588.586 48.5755C588.271 48.5755 587.948 48.4418 587.868 48.2848C587.68 47.907 586.576 47.907 586.576 48.279C586.576 48.5929 585.384 48.029 585.135 47.5989C585.055 47.4535 584.914 47.6163 584.825 47.9535C584.614 48.7964 583.524 48.8254 583.524 47.9942C583.524 47.5698 583.369 47.4129 582.937 47.4129C582.618 47.4129 582.35 47.285 582.35 47.1222C582.35 46.9594 582.2 46.8315 582.017 46.8315C581.829 46.8315 581.618 46.5816 581.538 46.2793C581.416 45.7968 581.308 45.7677 580.702 46.0526C580.228 46.2735 580.003 46.5758 580.003 46.9943C580.003 47.7442 579.049 48.9126 578.894 48.3546C578.838 48.1569 578.547 47.9942 578.246 47.9942C577.941 47.9942 577.636 47.8314 577.556 47.6338C577.481 47.4361 577.472 47.7268 577.537 48.2848C577.627 49.058 577.598 49.1975 577.406 48.8661C577.213 48.5406 577.124 48.5174 577.035 48.7964C576.969 48.994 576.711 49.1568 576.462 49.1568C576.218 49.1568 576.016 49.2847 576.016 49.4475C576.016 49.9474 575.584 49.7614 575.438 49.2033C575.246 48.4476 574.33 47.9651 573.973 48.436C573.762 48.715 573.809 48.9475 574.18 49.4416C574.64 50.052 574.645 50.1043 574.255 50.5636C573.95 50.9182 573.818 50.9531 573.734 50.6798C573.678 50.4822 573.476 50.3194 573.297 50.3194C573.114 50.3194 572.964 50.1857 572.964 50.0288C572.964 49.866 572.846 49.7381 572.701 49.7381C572.56 49.7381 572.499 49.9125 572.565 50.1276C572.706 50.5752 571.757 52.0575 571.334 52.0575C570.949 52.0575 570.499 52.6854 570.499 53.2202C570.499 53.4585 570.259 53.6968 569.968 53.7492C569.677 53.8015 569.442 53.7027 569.442 53.5283C569.442 52.9702 568.536 53.2027 568.386 53.8015C568.217 54.4584 566.869 54.6502 566.845 54.0224C566.836 53.8247 566.733 53.9526 566.615 54.313C566.352 55.1269 565.535 55.1734 565.333 54.3828C565.169 53.7434 564.751 53.5922 564.742 54.1619C564.737 54.3595 564.427 54.8944 564.056 55.3478L563.375 56.1732L562.878 55.5571C562.605 55.2199 562.281 55.0164 562.154 55.1153C562.032 55.2083 561.929 55.0862 561.929 54.8362C561.929 54.5863 561.798 54.3886 561.638 54.3944C561.164 54.4119 560.52 55.1327 560.52 55.6501C560.52 56.086 560.201 56.243 559.403 56.2023C559.243 56.1965 559.046 56.5046 558.966 56.8941C558.839 57.5219 558.792 57.5451 558.539 57.115C558.29 56.6906 558.206 56.7604 557.844 57.7079C557.478 58.6613 557.36 58.7601 556.769 58.5973C556.393 58.4927 556.036 58.5508 555.952 58.7252C555.665 59.2949 555.182 59.0391 554.886 58.1613C554.632 57.4056 554.477 57.2894 553.684 57.2894C552.918 57.2894 552.773 57.1905 552.773 56.6848C552.773 56.15 552.735 56.1326 552.42 56.5162C552.228 56.7546 552.068 57.1557 552.068 57.4114C552.068 57.673 551.871 57.8707 551.599 57.8707C551.341 57.8707 551.129 57.737 551.129 57.58C551.129 57.4173 550.941 57.2894 550.707 57.2894C550.472 57.2894 550.04 57.0161 549.749 56.679C549.439 56.3186 549.246 56.2314 549.289 56.4581C549.368 56.9173 548.594 58.452 548.284 58.452C548.166 58.452 547.941 58.0916 547.781 57.6498C547.312 56.3302 547.025 56.0977 546.654 56.7313C546.476 57.0394 546.185 57.2894 546.006 57.2894C545.828 57.2894 545.48 57.6091 545.232 57.9928C544.842 58.6089 544.687 58.6613 544.029 58.4287C543.081 58.0916 543.151 58.08 543.151 58.5973C543.151 58.888 542.917 59.0333 542.447 59.0333C542.057 59.0333 541.743 59.1612 541.743 59.324C541.743 59.4867 541.531 59.6146 541.273 59.6146C541.015 59.6146 540.804 59.7483 540.804 59.9053C540.804 60.2948 539.555 60.2773 539.235 59.882C539.052 59.6553 538.85 59.7367 538.526 60.1669C538.282 60.4982 537.817 60.8005 537.503 60.847C537.033 60.9109 536.939 60.8063 536.986 60.2715C537.014 59.9111 536.934 59.6204 536.808 59.6204C536.681 59.6204 536.578 59.8588 536.578 60.1552C536.578 60.4459 536.512 60.7656 536.437 60.8644C536.174 61.19 535.638 60.7249 535.638 60.1785C535.638 59.4693 535.347 59.4809 534.817 60.2076C534.277 60.9458 533.845 60.9458 533.469 60.2076C533.168 59.6088 531.882 59.3705 531.882 59.9169C531.882 60.0797 531.563 60.2076 531.178 60.2076C530.788 60.2076 530.473 60.3413 530.473 60.4982C530.473 60.661 530.262 60.7889 530.004 60.7889C529.745 60.7889 529.534 60.661 529.534 60.4982C529.534 60.3413 529.342 60.2076 529.111 60.2076C528.586 60.2076 527.426 59.5565 527.421 59.2658C527.421 59.1438 527.304 59.0507 527.153 59.0507C527.008 59.0507 526.665 58.7252 526.388 58.3299C525.918 57.6498 525.853 57.6323 525.219 58.0393C524.853 58.2776 524.421 58.4694 524.261 58.4694C524.106 58.4694 523.852 58.8008 523.707 59.2019C523.326 60.2308 522.852 60.3645 522.054 59.6553C521.674 59.3181 521.246 59.0449 521.105 59.0449C520.965 59.0449 520.847 58.9112 520.847 58.7543C520.847 58.5915 520.692 58.4636 520.495 58.4636C520.302 58.4636 520.143 58.7136 520.143 59.0159C520.143 59.3705 519.809 59.7716 519.213 60.1378C518.701 60.4517 518.251 60.6261 518.218 60.5215C518.058 60.0739 516.626 59.0507 516.166 59.0507C515.889 59.0507 515.457 58.8066 515.198 58.5159C514.804 58.0625 514.611 58.0276 513.916 58.295C513.47 58.4694 513.099 58.7078 513.099 58.8298C513.099 58.9519 512.888 59.0507 512.63 59.0507C512.32 59.0507 512.165 58.8589 512.165 58.4694C512.165 57.8649 511.794 57.6614 511.648 58.1904C511.606 58.359 511.306 58.5159 510.986 58.5392C510.662 58.5624 510.334 58.7078 510.254 58.8531C510.165 59.0101 509.803 58.9577 509.371 58.7252C508.662 58.3357 508.399 57.8881 508.878 57.8881C509.005 57.8881 509.113 57.7544 509.113 57.5975C509.113 57.4347 508.953 57.3068 508.756 57.3068C508.512 57.3068 508.413 57.5626 508.441 58.109C508.47 58.5508 508.409 59.2019 508.315 59.5565C508.15 60.1785 508.108 60.1843 507.451 59.7658C506.967 59.4577 506.765 59.1089 506.765 58.5915V57.8591L506.253 58.4462L505.746 59.0333L505.281 58.0916C505.009 57.551 504.769 57.3068 504.713 57.5161C504.657 57.7137 504.309 57.8765 503.943 57.8765C503.337 57.8765 503.262 57.9811 503.196 58.9694C503.135 59.9285 503.046 60.068 502.445 60.1552C502.074 60.2076 501.689 60.0913 501.59 59.8995C501.473 59.6553 501.365 59.7425 501.257 60.1669C501.144 60.6145 500.905 60.7889 500.412 60.7889C500.031 60.7889 499.722 60.9109 499.722 61.0563C499.722 61.2016 499.538 61.3876 499.308 61.4632C498.961 61.5795 498.98 61.6318 499.426 61.8062C499.717 61.9224 499.956 62.1317 499.956 62.2712C499.956 62.6665 498.834 62.5735 498.703 62.1666C498.637 61.9689 498.576 62.1433 498.566 62.5561C498.543 63.5152 497.472 64.3523 497.125 63.6838C497.008 63.4513 496.904 63.0676 496.895 62.8235C496.881 62.5735 496.787 62.6607 496.66 63.0444C496.453 63.6896 495.73 63.9687 495.73 63.4048C495.73 62.8583 495.317 63.1141 495.181 63.7419C495.082 64.2128 494.974 64.2942 494.744 64.0675C494.439 63.7652 493.167 63.3932 492.387 63.3757C492.157 63.3699 491.974 63.1781 491.974 62.9514C491.974 62.7014 491.744 62.5328 491.406 62.5328C491.096 62.5328 490.791 62.37 490.734 62.1724C490.654 61.8992 490.518 61.8876 490.19 62.1259C489.847 62.3759 489.579 62.3235 488.983 61.9108C488.339 61.4632 488.217 61.4458 488.217 61.8178C488.217 62.1491 488.062 62.2073 487.574 62.0561C487.217 61.9515 486.893 61.748 486.851 61.6143C486.804 61.4806 486.522 61.3702 486.217 61.3702C485.874 61.3702 485.611 61.1551 485.517 60.7889C485.325 60.039 484.93 60.039 484.93 60.7889C484.93 61.2132 484.775 61.3702 484.343 61.3702C484.024 61.3702 483.757 61.2423 483.757 61.0795C483.757 60.6726 482.033 60.7133 481.705 61.126C481.517 61.3586 481.334 61.3702 481.127 61.1667C480.587 60.6435 479.798 60.5505 479.366 60.9575C478.836 61.4574 478.202 61.4806 478.047 61.0098C477.981 60.8121 477.92 60.94 477.91 61.3004C477.896 61.7945 477.751 61.9515 477.319 61.9515C477 61.9515 476.68 61.8236 476.6 61.6608C476.408 61.283 474.605 61.283 474.605 61.6608C474.605 61.8236 474.393 61.9515 474.135 61.9515C473.877 61.9515 473.666 62.0794 473.666 62.2421C473.666 62.7653 472.905 62.5444 472.426 61.8817C472.107 61.4399 471.924 61.3469 471.853 61.5911C471.726 62.0213 470.848 62.0852 470.848 61.6608C470.848 61.5039 470.74 61.3702 470.609 61.3702C470.468 61.3702 470.43 61.6841 470.524 62.1433L470.684 62.9165L469.825 62.1084C469.003 61.3295 468.97 61.3237 468.97 61.9166C468.97 62.62 468.505 62.7072 467.378 62.2189C466.866 61.998 466.519 61.998 466.19 62.2189C465.852 62.4456 465.697 62.4398 465.631 62.2015C465.528 61.8178 464.504 62.3817 464.223 62.9746C464.124 63.1723 463.791 63.2653 463.457 63.1897C463.11 63.1083 462.866 63.1839 462.866 63.3757C462.866 63.5617 462.457 63.7012 461.913 63.7012C461.067 63.7012 460.969 63.6315 461.03 63.0734C461.072 62.7305 460.973 62.3933 460.814 62.3235C460.64 62.2538 460.518 62.4456 460.518 62.7886C460.518 63.957 459.889 63.8117 459.414 62.5386C459.161 61.8585 459.142 61.8527 459.128 62.434C459.114 62.9514 458.94 63.0792 458.118 63.1723C457.259 63.2711 457.015 63.1606 456.273 62.3293C455.254 61.1958 454.076 61.0098 453.878 61.9515C453.794 62.341 453.559 62.5328 453.146 62.5328C452.695 62.5328 452.535 62.6839 452.535 63.1141C452.535 64.2361 451.549 63.6606 451.3 62.3875C451.192 61.8585 451.178 61.8701 451.155 62.4572C451.122 63.3001 450.286 63.335 449.136 62.5328C448.676 62.2131 448.225 61.9689 448.131 61.9864C447.549 62.0968 447.149 61.8759 447.018 61.3702C446.872 60.7831 445.966 60.5389 445.966 61.0795C445.966 61.2423 445.807 61.3702 445.614 61.3702C445.417 61.3702 445.262 61.5039 445.262 61.6608C445.262 61.8236 445.069 61.9515 444.839 61.9515C444.604 61.9515 444.285 62.1143 444.126 62.3061C443.9 62.5851 443.74 62.5851 443.379 62.3061C442.759 61.8294 442.679 61.8527 442.679 62.5328C442.679 62.9979 442.52 63.1141 441.89 63.1141C441.266 63.1141 440.843 62.806 439.796 61.562C439.073 60.7075 438.411 59.6611 438.322 59.2368C438.237 58.8124 438.021 58.4636 437.838 58.4636C437.542 58.4636 437.411 58.109 437.486 57.5219C437.5 57.3998 437.406 57.301 437.279 57.301C437.148 57.301 437.045 57.6207 437.045 58.0102C437.045 58.9229 436.655 59.231 436.458 58.4694C436.373 58.1497 436.166 57.8823 435.988 57.8823C435.814 57.8823 435.598 57.4754 435.514 56.9813C435.378 56.2139 435.265 56.1035 434.772 56.2197C434.251 56.3418 434.204 56.2779 434.316 55.5919C434.387 55.1734 434.387 54.9932 434.316 55.1908C434.246 55.3885 434.025 55.5512 433.828 55.5512C433.617 55.5512 433.523 55.7198 433.598 55.964C433.772 56.522 433.138 56.7836 432.602 56.3709C432.255 56.1035 432.072 56.1558 431.63 56.6674C430.828 57.5975 430.471 57.4696 430.471 56.2488C430.471 55.4466 430.363 55.1676 430.001 55.0513C429.743 54.9699 429.532 54.7839 429.532 54.6444C429.532 54.5049 429.217 54.3886 428.832 54.3886C428.278 54.3886 428.099 54.2317 427.982 53.6503C427.841 52.947 427.808 52.9353 427.273 53.3655C426.968 53.6155 426.714 53.6852 426.714 53.5225C426.714 53.3597 426.578 53.226 426.414 53.226C426.249 53.226 425.963 52.9644 425.775 52.6447C425.587 52.325 425.301 52.0634 425.136 52.0634C424.972 52.0634 424.836 51.918 424.836 51.7378C424.836 51.5576 424.634 51.4762 424.385 51.5576C424.047 51.6681 423.897 51.5111 423.784 50.9531C423.662 50.3601 423.587 50.2904 423.413 50.6217C423.221 50.9879 423.164 50.9879 422.967 50.6043C422.779 50.2439 422.657 50.2322 422.263 50.5345C421.85 50.8542 421.704 50.7845 421.084 49.9823C420.694 49.4765 420.375 48.9301 420.375 48.7615C420.375 48.5929 420.225 48.7092 420.042 49.0231C419.727 49.5463 419.694 49.5521 419.549 49.0812C419.455 48.7964 419.145 48.5697 418.83 48.5697C418.398 48.5697 418.281 48.7092 418.323 49.18C418.356 49.5405 418.187 49.9299 417.915 50.1218C417.656 50.302 417.248 50.7147 417.004 51.0344C416.689 51.4414 416.525 51.5053 416.454 51.2553C416.393 51.0577 416.205 50.8949 416.032 50.8949C415.863 50.8949 415.665 50.7322 415.604 50.5345C415.506 50.2439 415.482 50.2439 415.463 50.5345C415.454 50.738 415.144 50.8949 414.759 50.8949C414.224 50.8949 414.055 51.0403 413.998 51.546C413.942 52.0169 413.792 52.1738 413.454 52.0982C413.195 52.0459 412.947 51.8773 412.904 51.7378C412.862 51.5925 412.519 51.4762 412.139 51.4762C411.763 51.4762 411.458 51.36 411.458 51.2146C411.458 51.0693 411.04 51.1972 410.528 51.5053C409.495 52.1215 409.11 52.1971 409.11 51.7785C409.11 51.6216 408.692 51.36 408.185 51.1914C407.518 50.9705 407.232 50.7031 407.162 50.238L407.058 49.5928L407.03 50.2439C406.997 50.8484 406.293 51.2263 406.293 50.6391C406.293 50.4996 406.161 50.3892 405.997 50.395C405.086 50.4357 404.692 50.2497 404.466 49.6625L404.213 49.0115L404.194 49.6625C404.18 50.3717 403.358 50.6101 403.184 49.959C403.123 49.7323 402.729 49.6335 402.109 49.6916C401.424 49.7555 401.118 49.6625 401.1 49.3951C401.085 49.1859 401.006 49.4009 400.921 49.8834C400.818 50.4938 400.616 50.7845 400.245 50.8484C399.954 50.9007 399.719 51.0635 399.719 51.2088C399.719 51.639 398.076 51.5227 397.705 51.0635C397.521 50.8368 397.371 50.4415 397.371 50.1915C397.371 49.9416 397.212 49.7381 397.019 49.7381C396.827 49.7381 396.667 49.866 396.667 50.0288C396.667 50.7322 396.169 50.2264 396.024 49.3777L395.864 48.436L395.737 49.3021C395.662 49.8137 395.437 50.209 395.197 50.2671C394.76 50.3717 394.084 49.7032 394.084 49.1684C394.084 48.9882 393.84 48.5406 393.54 48.1686C393.065 47.5872 392.957 47.5524 392.765 47.9302C392.568 48.3197 392.497 48.3197 392.154 47.8953C391.633 47.2501 391.098 47.2966 390.915 48C390.722 48.7499 390.168 48.7499 389.976 48C389.811 47.3489 388.788 47.1861 388.628 47.7791C388.548 48.0639 388.407 48.0697 387.961 47.7907C387.651 47.5989 386.717 47.4535 385.89 47.4768C384.613 47.5059 384.322 47.4187 383.975 46.8839C383.745 46.5351 383.294 46.256 382.956 46.256C382.622 46.256 382.345 46.1282 382.345 45.9654C382.345 45.8026 382.082 45.6747 381.758 45.6747C381.439 45.6747 381.171 45.8026 381.171 45.9654C381.171 46.5002 379.88 46.2735 379.533 45.6747C379.345 45.355 379.03 45.0934 378.833 45.0934C378.434 45.0934 376.95 43.4774 376.95 43.0472C376.95 42.8961 376.743 42.7682 376.49 42.7682C376.236 42.7682 375.856 42.3961 375.635 41.9253C375.241 41.0998 375.222 41.094 374.767 41.623C374.419 42.0183 374.189 42.088 373.879 41.8846C373.649 41.7334 373.132 41.6055 372.738 41.6055C372.344 41.6055 372.02 41.4718 372.02 41.3149C372.02 41.1521 371.813 41.0242 371.564 41.0242C371.315 41.0242 371.043 40.7626 370.963 40.4429C370.855 40.0186 370.606 39.8616 370.052 39.8616C369.207 39.8616 368.733 39.4256 368.733 38.6408C368.733 38.2572 368.55 38.1177 368.047 38.1177C367.671 38.1177 367.31 37.9549 367.244 37.7573C367.178 37.5596 367.117 37.6759 367.108 38.013C367.094 38.4199 367.221 38.6234 367.474 38.5943C367.686 38.5711 367.906 38.7164 367.963 38.9199C368.136 39.5303 366.042 39.3675 365.159 38.7048C364.643 38.3153 363.976 38.1235 363.126 38.1235C361.774 38.1235 360.985 37.4608 360.985 36.333C360.985 36.0366 360.825 35.7982 360.633 35.7982C360.44 35.7982 360.281 35.961 360.276 36.1586C360.276 36.4028 360.201 36.3795 360.051 36.0889C359.877 35.7459 359.773 35.7285 359.539 36.0191C359.158 36.4958 356.012 36.5016 355.632 36.0308C355.411 35.7575 355.35 35.8912 355.35 36.6121C355.35 37.7166 354.787 37.8677 354.017 36.9841C353.453 36.333 353.002 36.6644 353.002 37.7282C353.002 38.5711 352.613 38.8559 352.134 38.3676C351.833 38.0595 351.73 38.0595 351.655 38.3444C351.598 38.542 351.359 38.7048 351.119 38.7048C350.88 38.7048 350.617 38.8385 350.532 39.0013C350.453 39.164 350.26 39.2803 350.11 39.257C349.448 39.1582 349.246 39.3268 349.246 40.0011C349.246 40.7917 348.49 41.4718 347.917 41.1986C347.504 41.001 346.898 41.6637 346.898 42.3147C346.898 42.5821 346.696 42.7682 346.414 42.7682C346.147 42.7682 345.724 42.9019 345.475 43.0704C345.161 43.2797 345.02 43.2797 345.02 43.0704C345.02 42.5066 344.607 42.7682 344.47 43.4192C344.362 43.9366 344.273 43.9947 344.043 43.7099C343.884 43.5122 343.574 43.3495 343.353 43.3495C343.132 43.3495 342.897 43.1867 342.832 42.9891C342.766 42.7914 342.705 43.0414 342.695 43.5471C342.663 45.169 341.498 45.8724 341.146 44.483C340.958 43.7506 340.329 43.768 340.329 44.5121C340.329 44.9597 340.174 45.0934 339.653 45.0934C339.155 45.0934 338.934 45.2678 338.817 45.7445C338.718 46.1398 338.61 46.256 338.535 46.0351C338.469 45.8317 338.014 45.6747 337.507 45.6747C337.009 45.6747 336.535 45.5468 336.455 45.3841C336.375 45.2213 335.948 45.0934 335.502 45.0934C335.056 45.0934 334.694 45.2213 334.694 45.3841C334.694 45.9189 333.398 45.6922 333.051 45.0934C332.628 44.3668 332.346 44.3493 332.346 45.0469C332.346 45.3376 332.285 45.6515 332.215 45.7445C331.961 46.0584 331.187 45.6108 331.046 45.0644C330.971 44.7621 330.755 44.5121 330.567 44.5121C330.379 44.5121 330.229 44.3842 330.229 44.2215C330.229 44.0645 330.069 43.9308 329.876 43.9308C329.684 43.9308 329.524 44.0645 329.524 44.2215C329.524 44.3842 329.318 44.5121 329.069 44.5121C328.82 44.5121 328.548 44.64 328.472 44.7969C328.383 44.9772 328.148 44.9481 327.843 44.7272C327.454 44.4423 327.331 44.4423 327.247 44.733C327.191 44.9306 326.998 45.0934 326.824 45.0934C326.651 45.0934 326.463 45.3201 326.406 45.605C326.35 45.884 326.331 45.7968 326.364 45.4073C326.458 44.3203 326.247 43.9366 325.561 43.9366C325.124 43.9366 324.815 43.6925 324.547 43.1286C323.894 41.7567 322.692 40.2685 322.561 40.6696C322.495 40.8673 322.255 41.03 322.03 41.03C321.443 41.03 320.124 40.1697 319.973 39.693C319.903 39.4721 319.701 39.2861 319.523 39.2861C319.344 39.2861 319.194 39.1524 319.194 38.9954C319.194 38.8269 318.457 38.7048 317.447 38.7048C316.485 38.7048 315.635 38.8385 315.555 38.9954C315.329 39.4431 314.498 39.3384 314.498 38.8617C314.498 37.9258 313.677 36.397 313.169 36.3854C312.888 36.3795 312.625 36.2807 312.583 36.1586C312.484 35.8854 310.549 34.6356 310.221 34.6356C310.089 34.6356 309.807 34.3973 309.596 34.1008C309.065 33.3567 307.981 32.5196 306.995 32.0953C305.995 31.6651 303.079 31.607 302.877 32.0197C302.797 32.1825 302.313 32.3103 301.806 32.3103C300.909 32.3103 300.581 32.6708 301.172 33.0079C301.332 33.1009 301.243 33.1067 300.966 33.0254C300.604 32.9149 300.435 33.037 300.341 33.4613C300.214 34.0601 299.233 34.3217 299.233 33.7578C299.233 33.595 299.083 33.4672 298.899 33.4672C298.716 33.4672 298.529 33.3218 298.477 33.1416C298.43 32.9614 298.078 32.8161 297.693 32.8161C297.312 32.8161 296.923 32.6708 296.824 32.4906C296.702 32.258 296.65 32.2638 296.646 32.5254C296.646 32.7231 296.42 32.8858 296.153 32.8858C295.711 32.8858 295.678 32.7696 295.819 31.7232C295.922 30.9559 295.89 30.5606 295.721 30.5606C295.58 30.5606 295.467 30.3629 295.467 30.1246C295.467 29.427 294.805 29.6189 294.72 30.3397C294.598 31.4151 293.894 31.2814 292.903 30.0025C292.1 28.9678 291.861 28.8283 291.025 28.869C290.499 28.8922 290.067 29.0259 290.067 29.1596C290.067 29.2933 289.856 29.4038 289.597 29.4038C289.339 29.4038 289.128 29.2759 289.128 29.1131C289.128 28.9562 288.968 28.8225 288.776 28.8225C288.583 28.8225 288.424 28.6771 288.424 28.4969C288.424 28.2586 288.339 28.2586 288.118 28.4853C287.888 28.7236 287.729 28.6481 287.47 28.2005C286.874 27.1541 286.442 26.6484 285.78 26.224C285.423 25.9973 285.132 25.7124 285.132 25.5846C285.132 25.4567 284.902 25.0904 284.625 24.7649C284.259 24.3464 284.033 24.265 283.822 24.4801C283.62 24.6835 283.484 24.6835 283.376 24.4742C283.291 24.3057 283.019 24.172 282.77 24.172C282.521 24.172 282.315 24.0266 282.315 23.8522C282.315 23.6488 281.854 23.5732 281.047 23.6313C280.347 23.6895 279.831 23.6255 279.896 23.4976C279.962 23.3698 279.77 23.0035 279.469 22.6838C278.985 22.1664 278.896 22.149 278.657 22.5559C278.319 23.1256 277.943 23.1372 277.769 22.5792C277.694 22.3408 277.502 22.2129 277.333 22.2885C277.168 22.3641 276.821 22.0385 276.562 21.5561C276.281 21.0271 275.891 20.6841 275.581 20.6841C275.299 20.6841 274.999 20.5446 274.914 20.376C274.82 20.19 274.604 20.3004 274.346 20.6666C273.82 21.4165 273.618 21.4107 272.942 20.6376C272.524 20.1551 272.139 20.0214 271.256 20.0621C270.627 20.0911 270.111 20.0098 270.111 19.8877C270.111 19.7656 269.768 19.475 269.35 19.2424C268.932 19.0099 268.383 18.5914 268.134 18.3007C267.636 17.7252 266.936 17.6089 266.711 18.0682C266.631 18.2309 266.364 18.3588 266.115 18.3588C265.739 18.3588 265.687 18.5042 265.805 19.2308C265.974 20.2655 265.471 20.4457 265.002 19.5215C264.56 18.6437 264.246 18.8239 264.246 19.94C264.246 20.4923 264.138 21.0212 264.011 21.1201C263.88 21.2189 263.776 21.5502 263.776 21.8642C263.776 22.5675 263.753 22.5617 262.677 21.8176C261.992 21.341 261.706 21.277 261.382 21.527C260.865 21.9281 258.221 21.9513 258.024 21.5561C257.846 21.1956 255.794 21.1666 255.794 21.5212C255.794 21.6607 255.47 21.9397 255.075 22.1432C254.535 22.4164 254.291 22.428 254.089 22.1781C253.685 21.6839 253.446 21.777 253.446 22.428C253.446 22.8582 253.291 23.0093 252.845 23.0093C252.389 23.0093 252.187 22.8001 252 22.1316L251.751 21.2538L251.277 21.9165C250.953 22.3641 250.765 22.4629 250.694 22.2129C250.638 22.0153 250.403 21.8525 250.178 21.8525C249.952 21.8525 249.694 21.7653 249.61 21.6607C249.525 21.5561 249.074 21.4165 248.614 21.3584C248.102 21.2945 247.529 20.9515 247.149 20.4748C246.618 19.8237 246.51 19.7772 246.445 20.1958C246.356 20.7655 245.689 20.8527 245.276 20.3411C245.055 20.0679 244.994 20.0679 244.994 20.3411C244.994 20.5504 244.642 20.6899 244.111 20.6899C243.435 20.6899 243.12 20.5155 242.773 19.94C242.524 19.5273 241.998 18.9867 241.604 18.7367C241.209 18.4867 240.833 18.2019 240.768 18.1031C240.176 17.2078 238.105 16.8707 237.866 17.6322C237.655 18.3123 237.082 17.8357 236.884 16.8184C236.73 16.0103 236.692 15.9755 236.607 16.5451C236.523 17.109 236.363 17.1962 235.471 17.1962C234.898 17.1962 234.433 17.0683 234.433 16.9056C234.433 16.7428 233.959 16.6149 233.377 16.6149C232.795 16.6149 232.32 16.487 232.32 16.3242C232.32 16.1615 232.109 16.0336 231.851 16.0336C231.593 16.0336 231.381 16.1615 231.381 16.3242C231.381 16.8881 230.513 16.6091 230.259 15.9638C230.118 15.6034 229.996 15.4755 229.987 15.6732C229.977 15.8708 229.719 16.0336 229.414 16.0336C229.015 16.0336 228.77 15.7836 228.564 15.1616C228.315 14.4117 228.151 14.2896 227.399 14.2896C226.822 14.2896 226.38 14.092 226.099 13.7083C225.662 13.1096 224.573 12.9003 224.573 13.4177C224.573 13.5804 224.098 13.7083 223.516 13.7083C222.934 13.7083 222.46 13.5804 222.46 13.4177C222.46 13.2607 222.267 13.127 222.037 13.127C221.802 13.127 221.384 12.8654 221.107 12.5457C220.83 12.226 220.516 11.9644 220.412 11.9644C220.309 11.9644 220.069 11.7028 219.882 11.3831C219.694 11.0634 219.328 10.8076 219.065 10.8134C218.619 10.825 218.614 10.8483 219.004 11.2145C219.234 11.4296 219.356 11.8016 219.281 12.0458C219.097 12.6387 217.764 12.8771 217.6 12.3481C217.51 12.0574 217.308 12.1679 216.844 12.7608C215.519 14.4524 215.496 14.4582 214.984 13.0805C214.627 12.1272 214.515 11.9818 214.5 12.4818C214.482 13.0689 214.36 13.1328 213.322 13.1328C212.683 13.1328 212.096 12.9991 212.016 12.8422C211.937 12.6794 211.509 12.5515 211.063 12.5515C210.617 12.5515 210.256 12.6794 210.256 12.8422C210.256 13.22 208.908 13.22 208.809 12.8422C208.734 12.569 207.983 12.7375 206.941 13.2665C206.715 13.377 206.391 13.2491 206.152 12.9584C205.823 12.5515 205.659 12.5225 205.302 12.7957C204.654 13.2956 204.198 13.2142 204.034 12.5573C203.884 11.9702 203.212 11.7319 203.212 12.2667C203.212 12.6968 201.16 12.6271 201.019 12.1969C200.925 11.9063 200.897 11.9063 200.883 12.1969C200.86 12.7085 199.963 12.6503 199.526 12.1039C199.075 11.5458 199.282 11.261 200.522 10.6971L201.456 10.2728L200.573 10.2553C200.09 10.2437 199.451 10.3832 199.165 10.5692C198.066 11.2726 197.812 11.3947 197.469 11.3947C197.272 11.3947 197.113 11.261 197.113 11.104C197.113 10.9413 196.817 10.8134 196.455 10.8134C195.741 10.8134 194.535 10.2205 194.53 9.87167C194.525 9.54613 192.934 9.61008 192.769 9.94142C192.492 10.4937 192.051 10.2321 191.783 9.36011C191.473 8.337 190.91 8.15679 191.107 9.13921C191.177 9.49963 191.177 9.62751 191.102 9.42987C191.027 9.23222 190.67 9.06946 190.304 9.06946C189.938 9.06946 189.59 9.23222 189.529 9.42987C189.445 9.72052 189.36 9.72052 189.111 9.42987C188.679 8.92413 188.191 8.97644 188.191 9.52288C188.191 10.3077 187.557 10.8076 186.562 10.8076C185.608 10.8076 185.073 11.0634 183.993 12.04C183.27 12.6968 183.091 12.6794 182.904 11.9528C182.777 11.4587 182.692 11.418 182.397 11.7202C182.199 11.9237 181.734 12.0574 181.359 12.0225C180.861 11.976 180.678 12.0865 180.678 12.4411C180.678 12.9933 180.025 13.6909 179.495 13.7025C179.025 13.7141 177.865 13.0514 177.865 12.7666C177.861 12.4004 177.208 12.5225 177.09 12.9119C176.973 13.313 176.978 13.313 175.142 11.6912C174.386 11.0285 173.78 10.7088 173.339 10.7553C172.972 10.7901 172.371 10.5518 172.005 10.2321C171.639 9.90655 171.197 9.63914 171.024 9.63914C170.85 9.63914 170.446 9.37755 170.122 9.06364C169.441 8.40094 169.038 8.33119 168.868 8.84274C168.784 9.10433 168.695 9.11596 168.554 8.88344C168.446 8.70904 167.99 8.55209 167.544 8.54046C167.094 8.52883 166.69 8.37769 166.643 8.20911C166.596 8.04053 166.309 7.90102 166.009 7.90102C165.68 7.90102 165.417 7.69756 165.356 7.39527C165.3 7.0988 165.276 7.15112 165.304 7.51735C165.337 7.94171 165.192 8.2033 164.863 8.31375C164.041 8.58697 162.14 8.50558 162.14 8.19167C162.14 8.0289 161.952 7.90102 161.722 7.90102C161.492 7.90102 161.154 7.64524 160.975 7.33714C160.67 6.81396 160.628 6.80815 160.355 7.26738C160.083 7.72662 160.05 7.72662 159.895 7.22669C159.782 6.86047 159.674 6.80233 159.557 7.03486C159.435 7.2732 159.257 7.29064 158.947 7.08718C157.341 6.02919 156.899 5.90711 156.237 6.33147C155.477 6.81977 154.937 6.86047 154.824 6.44773C154.735 6.11638 153.462 6.73258 153.457 7.11043C153.453 7.77894 149.94 7.05811 149.936 6.38379C149.931 5.90711 148.358 6.19196 147.865 6.75583C147.583 7.08136 147.353 7.19763 147.353 7.01161C147.353 6.81396 147.151 6.73839 146.869 6.8314C146.569 6.93022 146.334 6.82559 146.254 6.564C146.146 6.22102 146.057 6.2094 145.761 6.51168C145.475 6.80815 145.376 6.80815 145.301 6.51749C145.245 6.31984 144.893 6.15708 144.517 6.15708C144.132 6.15708 143.831 6.00012 143.827 5.79666C143.822 5.58739 143.719 5.64552 143.587 5.93037C143.315 6.51168 142.742 6.33147 142.132 5.48275C141.906 5.16884 141.718 5.0584 141.718 5.24442C141.718 5.66877 140.958 5.6804 140.615 5.26185C140.427 5.02933 140.314 5.11071 140.202 5.55251C140.037 6.19196 139.507 6.37216 139.253 5.87223C139.173 5.71528 138.849 5.58158 138.535 5.58158C138.22 5.58158 137.962 5.47694 137.962 5.35487C137.962 5.22698 137.544 5.1049 137.032 5.08165C136.52 5.0584 135.901 4.90144 135.652 4.73867C135.267 4.4829 135.154 4.57009 134.91 5.30255C134.703 5.91874 134.459 6.1687 134.065 6.1687C133.755 6.1687 133.506 6.035 133.506 5.86642C133.506 5.65715 133.365 5.65715 133.05 5.86642C132.468 6.25009 130.923 6.2559 130.923 5.87805C130.923 5.72109 130.764 5.58739 130.571 5.58739C130.378 5.58739 130.219 5.4595 130.219 5.29673C130.219 5.13978 129.956 5.00608 129.632 5.00608C129.308 5.00608 129.045 4.87819 129.045 4.71542C129.045 4.55847 128.834 4.42476 128.575 4.42476C128.068 4.42476 127.932 4.884 128.383 5.07002C128.561 5.13978 128.594 5.38974 128.472 5.75016C128.35 6.11639 128.247 6.18614 128.176 5.9478C128.007 5.38393 127.707 5.51763 127.528 6.23846C127.43 6.63375 127.322 6.75002 127.247 6.52912C127.181 6.33147 126.946 6.1687 126.721 6.1687C126.213 6.1687 125.054 5.51182 125.054 5.22116C125.054 5.09909 124.894 5.00026 124.701 5.00026C124.509 5.00026 124.349 4.87238 124.349 4.70961C124.349 4.23874 121.865 4.35501 121.537 4.84331C121.325 5.16303 120.968 5.22116 120.156 5.08746C119.555 4.98864 119.029 4.7968 118.987 4.6631C118.945 4.5294 118.517 4.41895 118.038 4.41895C117.559 4.41895 117.057 4.28525 116.926 4.12248C116.592 3.70975 114.179 3.67487 114.066 4.0876C113.944 4.53521 112.676 4.50615 112.54 4.05272C112.455 3.76207 112.371 3.76207 112.122 4.05272C111.634 4.62241 110.967 4.50033 110.967 3.83183C110.967 3.50629 110.812 3.25051 110.615 3.25051C110.417 3.25051 110.262 3.50629 110.262 3.83183C110.262 4.25618 110.108 4.41314 109.69 4.41314C109.375 4.41314 109.051 4.27944 108.971 4.12248C108.741 3.65743 107.844 3.76207 107.99 4.23874C108.06 4.46546 107.966 4.88981 107.788 5.18047C107.473 5.69203 107.459 5.68621 107.45 5.06421C107.445 4.68054 107.295 4.41314 107.088 4.41314C106.896 4.41314 106.736 4.26781 106.736 4.0876C106.736 3.86089 106.628 3.87252 106.384 4.12248C106.14 4.37245 106.032 4.38407 106.032 4.15736C106.032 3.97715 105.872 3.83183 105.68 3.83183C105.487 3.83183 105.327 3.69812 105.327 3.54117C105.327 3.37259 104.623 3.25051 103.684 3.25051C102.313 3.25051 102.04 3.3319 102.04 3.733C102.04 4.18061 102.012 4.18061 101.613 3.733C101.378 3.47141 101.059 3.25051 100.909 3.25051C100.759 3.25051 100.632 3.11681 100.632 2.95986C100.632 2.79709 100.514 2.6692 100.369 2.6692C100.176 2.6692 100.176 2.77384 100.359 3.04705C100.547 3.3319 100.5 3.54698 100.172 3.89577C99.4203 4.69217 98.7206 4.62822 97.9036 3.6865C97.42 3.12844 96.4902 2.56456 95.3116 2.11695C94.2974 1.73329 93.3676 1.30893 93.2456 1.17522C92.9403 0.838063 92.4097 0.867129 92.4097 1.22173C92.4097 1.3845 92.5177 1.51239 92.6445 1.51239C92.776 1.51239 92.8793 1.77398 92.8793 2.0937C92.8793 2.57619 92.7243 2.67501 91.9402 2.67501C91.4237 2.67501 91.0011 2.5355 91.0011 2.36692C91.0011 2.18671 90.4892 2.07045 89.7708 2.08789C86.2068 2.16346 84.1971 2.05882 84.1971 1.79723C84.1971 1.64028 83.906 1.5182 83.5538 1.53564C83.1969 1.54727 83.042 1.62284 83.2016 1.70422C83.3613 1.7856 83.4928 2.03557 83.4928 2.26228C83.4928 2.54712 83.2063 2.67501 82.5536 2.67501C82.0371 2.67501 81.6145 2.8029 81.6145 2.96567C81.6145 3.12262 81.4032 3.25633 81.145 3.25633C80.8867 3.25633 80.6754 3.43653 80.6754 3.65743C80.6754 3.95971 80.4171 4.02366 79.6048 3.9074C78.6046 3.76788 77.1067 4.12829 76.1629 4.73867C75.5666 5.12234 74.0123 5.0584 73.6648 4.63985C73.4254 4.34919 73.2751 4.41314 72.9088 4.9712C72.4628 5.64552 72.444 5.65133 72.0448 5.11653C71.4485 4.31431 69.5562 3.1575 69.4529 3.52954C69.4012 3.72719 68.3776 3.84345 66.659 3.84345C64.1891 3.84345 63.9073 3.89577 63.5176 4.45964C63.1701 4.95376 62.9354 5.03514 62.3155 4.86656C61.8929 4.75611 60.8599 4.59334 60.0241 4.51196C58.5262 4.36663 58.4886 4.38407 57.8547 5.3258C57.4978 5.85479 57.2067 6.12801 57.2067 5.93618C57.2067 5.74434 57.047 5.58158 56.8545 5.58158C56.662 5.58158 56.5024 5.71528 56.5024 5.87223C56.5024 6.035 56.3427 6.16289 56.1502 6.16289C55.9577 6.16289 55.798 6.27915 55.798 6.42448C55.798 6.56981 55.4036 6.68607 54.9246 6.68607C54.4457 6.68607 54.0137 6.8314 53.9667 7.00579C53.8493 7.44759 52.342 7.41271 52.1965 6.95929C52.1026 6.66863 52.0744 6.66863 52.0603 6.95929C52.0509 7.15694 51.7504 7.3197 51.3935 7.3197C50.9991 7.3197 50.6328 7.54641 50.4544 7.90102C50.121 8.56371 48.6513 8.72067 48.4259 8.12191C48.3508 7.92427 48.3508 8.05216 48.4212 8.41257C48.5902 9.2671 47.8296 9.31942 47.3459 8.48233C47.1581 8.16261 46.82 7.90102 46.5899 7.90102C46.3598 7.90102 46.172 7.77313 46.172 7.61036C46.172 7.44759 46.0123 7.3197 45.8198 7.3197C45.355 7.3197 45.3644 8.08122 45.8339 8.30212C46.0358 8.40095 46.1344 8.61022 46.0546 8.76717C45.8292 9.2206 44.9981 9.11015 44.9981 8.63347C44.9981 8.40095 44.7821 8.06378 44.5191 7.88939C44.0965 7.61036 44.0449 7.65105 44.0871 8.24399C44.1857 9.66239 44.0824 10.0054 43.5941 9.84841C43.2466 9.73796 43.1245 9.8426 43.1245 10.2495C43.1245 10.5518 43.0212 10.8018 42.8898 10.8018C42.763 10.8018 42.655 10.6681 42.655 10.5111C42.655 10.3483 42.3028 10.2205 41.8708 10.2205C41.4388 10.2205 41.0068 10.1216 40.9129 9.99956C40.8143 9.87748 40.4011 9.77284 39.9926 9.7554C39.584 9.74378 38.7435 9.55194 38.1284 9.33105C37.2644 9.02295 36.8465 9.00551 36.3112 9.25548C35.9262 9.43568 35.6116 9.49381 35.6116 9.38918C35.6069 8.66835 32.921 8.15098 32.7378 8.83112C32.6627 9.11596 32.5641 9.11596 32.2965 8.84274C32.0945 8.63928 31.2305 8.49396 30.2116 8.49977C29.2537 8.50558 28.432 8.38351 28.3944 8.23236C28.324 7.97659 26.6993 9.72634 26.6993 10.0577C26.6993 10.1391 26.9106 10.2088 27.1688 10.2088C27.4271 10.2088 27.6384 10.3367 27.6384 10.4995C27.6384 10.6564 27.3191 10.7901 26.9341 10.7901C26.5443 10.7901 26.2297 10.6797 26.2297 10.546C26.2297 10.3367 25.2249 9.62752 24.929 9.62752C24.6849 9.62752 24.8445 10.7494 25.1028 10.8599C25.3235 10.9529 25.3235 11.0227 25.1028 11.1912C24.9478 11.3075 24.821 11.2668 24.821 11.0982C24.821 10.9297 24.6097 10.7901 24.3515 10.7901C24.0932 10.7901 23.8819 10.6564 23.8819 10.4995C23.8819 10.3367 23.7223 10.2088 23.5297 10.2088C23.3372 10.2088 23.1776 10.0809 23.1776 9.91817C23.1776 9.7554 22.9569 9.90073 22.6845 10.2379C22.337 10.6623 22.0412 10.7843 21.6891 10.6448C21.412 10.5344 20.8157 10.3716 20.3649 10.2902C19.6371 10.1507 19.5807 10.1856 19.8578 10.5983C20.0268 10.8541 20.3696 11.1447 20.6185 11.2378C21.0739 11.418 21.2571 12.5399 20.8344 12.5399C20.703 12.5399 20.5997 12.9294 20.5997 13.4119C20.5997 13.8944 20.7124 14.2838 20.8485 14.2838C20.9847 14.2838 21.0317 14.4175 20.9518 14.5745C20.7311 15.0105 19.7592 14.9233 19.4305 14.435C19.2708 14.1966 18.8435 13.8188 18.4819 13.5979C17.8433 13.2026 17.8246 13.2142 17.8809 13.8944C17.9138 14.2838 18.064 14.7489 18.2143 14.9349C18.5946 15.4058 18.5571 16.6091 18.1626 16.6091C17.9842 16.6091 17.7823 16.3475 17.7166 16.0278C17.632 15.6325 17.3973 15.4465 16.984 15.4465C16.5333 15.4465 16.3736 15.5976 16.3736 16.0278C16.3736 16.551 16.2187 16.6091 14.871 16.6091C13.4858 16.6091 13.3778 16.6556 13.4905 17.1846C13.6549 17.9635 12.8942 18.3356 12.5044 17.6729C12.3495 17.4055 12.1006 17.1904 11.9503 17.1904C11.8048 17.1904 11.6827 17.0625 11.6827 16.8997C11.6827 16.737 11.4808 16.6091 11.2319 16.6091C10.983 16.6091 10.7342 16.4463 10.6731 16.2487C10.5886 15.958 10.5041 15.958 10.2552 16.2487C10.0862 16.4463 9.69175 16.6091 9.37715 16.6091H8.80898L9.34428 17.1439C9.70584 17.5043 9.82793 17.8473 9.71993 18.1903C9.56967 18.6669 9.51801 18.6727 8.98271 18.2368C8.21733 17.6148 7.92151 17.6496 7.92151 18.353C7.92151 18.8355 7.76655 18.9343 6.99647 18.9343C6.27804 18.9343 6.03856 19.0622 5.92117 19.5215C5.83196 19.8702 5.66291 20.0214 5.49857 19.8993C5.34831 19.7831 4.76605 19.6726 4.20258 19.6494C3.61562 19.6261 3.08502 19.4343 2.96293 19.2017C2.81737 18.9343 2.77511 19.0215 2.81737 19.5447C2.87372 20.2423 2.83146 20.2655 1.70451 20.1842C1.02364 20.1377 0.5353 20.033 0 19.8005V80.3741H1440V33.8799Z" fill="white"/>
</svg>
